<?xml version="1.0" encoding="UTF-8"?><svg id="Capa_1" xmlns="http://www.w3.org/2000/svg" xmlns:xlink="http://www.w3.org/1999/xlink" viewBox="0 0 567.94 608.02"><defs><style>.cls-1{fill:#ec7d00;}.cls-2{fill:#c4c4c3;}.cls-3{fill:#24346c;}.cls-4{fill:#f9d900;filter:url(#drop-shadow-1);}</style><filter id="drop-shadow-1" filterUnits="userSpaceOnUse"><feOffset dx="16.15" dy="32.3"/><feGaussianBlur result="blur" stdDeviation="32.3"/><feFlood flood-color="#1d1e1c" flood-opacity=".5"/><feComposite in2="blur" operator="in"/><feComposite in="SourceGraphic"/></filter></defs><polygon class="cls-1" points="452.23 153.97 400.22 153.97 374.22 199.01 400.22 244.05 452.23 244.05 478.23 199.01 452.23 153.97"/><polygon class="cls-3" points="333.23 156.28 301.42 156.28 285.52 183.82 301.42 211.37 333.23 211.37 349.13 183.82 333.23 156.28"/><polygon class="cls-3" points="469.16 64.75 427.65 64.75 406.9 100.7 427.65 136.65 469.16 136.65 489.92 100.7 469.16 64.75"/><polygon class="cls-2" points="528.98 123.41 505.4 123.41 493.61 143.83 505.4 164.25 528.98 164.25 540.77 143.83 528.98 123.41"/><polygon class="cls-1" points="478.36 17.71 461.71 17.71 453.38 32.13 461.71 46.55 478.36 46.55 486.68 32.13 478.36 17.71"/><polygon class="cls-2" points="390.51 84.24 366.93 84.24 355.14 104.67 366.93 125.09 390.51 125.09 402.3 104.67 390.51 84.24"/><path class="cls-4" d="m446.85,254.19h-52.48l-31.86-55.18,11.64-20.15c-8.22-4.97-16.84-9.36-25.76-13.14l10.46,18.11-20.75,35.95h-41.51l-20.75-35.95,18.8-32.57c-8.38-1.05-16.92-1.62-25.58-1.62h-45.7c-112.35,0-203.43,91.08-203.43,203.43v226.55h249.13c112.35,0,203.43-91.08,203.43-203.43v-23.12c0-35.89-9.31-69.6-25.62-98.87Zm-73.51,112.05c0,13.06-10.58,23.64-23.64,23.64h-85.43v85.43c0,13.06-10.58,23.64-23.64,23.64h-3.25c-13.06,0-23.64-10.59-23.64-23.64v-85.43h-85.43c-13.06,0-23.64-10.58-23.64-23.64v-3.25c0-13.06,10.58-23.64,23.64-23.64h85.43v-85.43c0-13.06,10.58-23.64,23.64-23.64h3.25c13.06,0,23.64,10.58,23.64,23.64v85.43h85.43c13.06,0,23.64,10.58,23.64,23.64v3.25Z"/></svg>