<?xml version="1.0" encoding="UTF-8"?><svg id="Capa_1" xmlns="http://www.w3.org/2000/svg" xmlns:xlink="http://www.w3.org/1999/xlink" viewBox="0 0 567.94 608.02"><defs><style>.cls-1{fill:#ec7d00;}.cls-2{fill:#fff;}.cls-3{fill:#c4c4c3;}.cls-4{fill:#f9d900;filter:url(#drop-shadow-1);}</style><filter id="drop-shadow-1" filterUnits="userSpaceOnUse"><feOffset dx="16.03" dy="32.06"/><feGaussianBlur result="blur" stdDeviation="32.06"/><feFlood flood-color="#1d1e1c" flood-opacity=".5"/><feComposite in2="blur" operator="in"/><feComposite in="SourceGraphic"/></filter></defs><polygon class="cls-1" points="451.23 164.78 399.62 164.78 373.81 209.49 399.62 254.19 451.23 254.19 477.04 209.49 451.23 164.78"/><polygon class="cls-2" points="333.13 167.07 301.56 167.07 285.77 194.41 301.56 221.75 333.13 221.75 348.91 194.41 333.13 167.07"/><polygon class="cls-2" points="468.04 76.23 426.84 76.23 406.24 111.91 426.84 147.59 468.04 147.59 488.64 111.91 468.04 76.23"/><polygon class="cls-3" points="527.41 134.45 504.01 134.45 492.31 154.72 504.01 174.99 527.41 174.99 539.12 154.72 527.41 134.45"/><polygon class="cls-1" points="477.17 29.55 460.64 29.55 452.38 43.86 460.64 58.17 477.17 58.17 485.43 43.86 477.17 29.55"/><polygon class="cls-3" points="389.98 95.58 366.57 95.58 354.87 115.85 366.58 136.12 389.98 136.12 401.68 115.85 389.98 95.58"/><path class="cls-4" d="m471.32,362.38c0-35.62-9.24-69.07-25.42-98.13h-52.09l-31.62-54.77,11.55-20c-8.16-4.93-16.71-9.29-25.57-13.05l10.38,17.98-20.6,35.68h-41.2l-20.6-35.68,18.66-32.33c-8.32-1.04-16.79-1.61-25.39-1.61h-45.36c-111.51,0-201.9,90.39-201.9,201.9v224.85h247.26c111.51,0,201.9-90.39,201.9-201.9v-22.95Zm-98.38,13.09c0,12.96-10.51,23.46-23.46,23.46h-84.79s0,84.79,0,84.79c0,12.96-10.51,23.47-23.46,23.47h-3.22c-12.96,0-23.46-10.51-23.46-23.47v-84.79h-84.79c-12.96,0-23.46-10.51-23.46-23.46v-3.23c0-12.96,10.51-23.46,23.46-23.46h84.79v-84.79c0-12.96,10.51-23.46,23.46-23.46h3.22c12.96,0,23.46,10.51,23.46,23.46v84.79h84.79c12.96,0,23.46,10.51,23.46,23.46v3.23Z"/></svg>