<?xml version="1.0" encoding="UTF-8"?><svg id="Capa_1" xmlns="http://www.w3.org/2000/svg" xmlns:xlink="http://www.w3.org/1999/xlink" viewBox="0 0 567.94 608.02"><defs><style>.cls-1{fill:#d7d7d7;}.cls-2{fill:#1d1d1b;}.cls-3{fill:#575756;}.cls-4{fill:#c4c4c3;filter:url(#drop-shadow-1);}</style><filter id="drop-shadow-1" filterUnits="userSpaceOnUse"><feOffset dx="16.13" dy="32.26"/><feGaussianBlur result="blur" stdDeviation="32.26"/><feFlood flood-color="#1d1e1c" flood-opacity=".5"/><feComposite in2="blur" operator="in"/><feComposite in="SourceGraphic"/></filter></defs><polygon class="cls-3" points="451.72 164.37 399.78 164.37 373.81 209.35 399.78 254.34 451.72 254.34 477.7 209.35 451.72 164.37"/><polygon class="cls-2" points="332.87 166.67 301.1 166.67 285.21 194.18 301.1 221.7 332.87 221.7 348.75 194.18 332.87 166.67"/><polygon class="cls-2" points="468.64 75.25 427.18 75.25 406.45 111.16 427.18 147.06 468.64 147.06 489.37 111.16 468.64 75.25"/><polygon class="cls-1" points="528.39 133.84 504.84 133.84 493.06 154.24 504.84 174.63 528.39 174.63 540.16 154.24 528.39 133.84"/><polygon class="cls-3" points="477.82 28.27 461.19 28.27 452.88 42.67 461.19 57.07 477.82 57.07 486.14 42.67 477.82 28.27"/><polygon class="cls-1" points="390.08 94.72 366.53 94.72 354.75 115.12 366.53 135.52 390.08 135.52 401.86 115.12 390.08 94.72"/><path class="cls-4" d="m446.35,264.47h-52.42l-31.82-55.11,11.62-20.13c-8.21-4.97-16.82-9.35-25.73-13.13l10.44,18.09-20.73,35.91h-41.46l-20.73-35.91,18.78-32.53c-8.37-1.05-16.9-1.62-25.55-1.62h-45.65c-112.22,0-203.18,90.97-203.18,203.19v226.28h248.83c112.22,0,203.19-90.97,203.19-203.19v-23.1c0-35.84-9.29-69.51-25.58-98.75Zm-73.42,111.92c0,13.04-10.57,23.61-23.61,23.61h-85.33v85.33c0,13.04-10.57,23.61-23.61,23.61h-3.25c-13.04,0-23.61-10.57-23.61-23.61v-85.33h-85.33c-13.04,0-23.61-10.57-23.61-23.61v-3.25c0-13.04,10.57-23.61,23.61-23.61h85.33v-85.33c0-13.04,10.57-23.61,23.61-23.61h3.25c13.04,0,23.61,10.57,23.61,23.61v85.33h85.33c13.04,0,23.61,10.57,23.61,23.61v3.25Z"/></svg>