<?xml version="1.0" encoding="UTF-8"?><svg id="Capa_1" xmlns="http://www.w3.org/2000/svg" xmlns:xlink="http://www.w3.org/1999/xlink" viewBox="0 0 567.94 608.02"><defs><style>.cls-1{filter:url(#drop-shadow-1);}</style><filter id="drop-shadow-1" filterUnits="userSpaceOnUse"><feOffset dx="15.92" dy="31.84"/><feGaussianBlur result="blur" stdDeviation="31.84"/><feFlood flood-color="#1d1e1c" flood-opacity=".5"/><feComposite in2="blur" operator="in"/><feComposite in="SourceGraphic"/></filter></defs><polygon points="443.73 171.87 392.47 171.87 366.83 216.26 392.47 260.66 443.73 260.66 469.37 216.26 443.73 171.87"/><polygon points="326.43 174.14 295.08 174.14 279.4 201.29 295.08 228.45 326.43 228.45 342.11 201.29 326.43 174.14"/><polygon points="460.42 83.92 419.51 83.92 399.05 119.36 419.51 154.79 460.42 154.79 480.88 119.36 460.42 83.92"/><polygon points="519.39 141.74 496.15 141.74 484.53 161.87 496.15 182 519.39 182 531.02 161.87 519.39 141.74"/><polygon points="469.49 37.55 453.08 37.55 444.87 51.76 453.08 65.98 469.49 65.98 477.69 51.76 469.49 37.55"/><polygon points="382.9 103.13 359.65 103.13 348.03 123.26 359.65 143.39 382.9 143.39 394.52 123.26 382.9 103.13"/><path class="cls-1" d="m463.68,368.11c0-35.38-9.17-68.6-25.25-97.46h-51.74l-31.4-54.39,11.47-19.87c-8.1-4.9-16.6-9.22-25.4-12.96l10.31,17.85-20.46,35.44h-40.92l-20.46-35.44,18.54-32.11c-8.26-1.04-16.67-1.6-25.22-1.6h-45.05c-110.75,0-200.53,89.78-200.52,200.53v223.32h245.58c110.75,0,200.53-89.78,200.53-200.53v-22.79Zm-97.71,13c0,12.87-10.43,23.3-23.3,23.3h-84.22v84.22c0,12.87-10.43,23.31-23.3,23.31h-3.2c-12.87,0-23.3-10.44-23.3-23.31v-84.22h-84.22c-12.87,0-23.3-10.43-23.3-23.3v-3.2c0-12.87,10.43-23.3,23.3-23.3h84.22v-84.22c0-12.87,10.43-23.3,23.3-23.3h3.2c12.87,0,23.3,10.43,23.3,23.3v84.22h84.22c12.87,0,23.3,10.43,23.3,23.3v3.2Z"/></svg>