<?xml version="1.0" encoding="UTF-8"?><svg id="Capa_1" xmlns="http://www.w3.org/2000/svg" xmlns:xlink="http://www.w3.org/1999/xlink" viewBox="0 0 1254.51 608.02"><defs><style>.cls-1,.cls-2{fill:#24346c;}.cls-2{filter:url(#drop-shadow-1);}</style><filter id="drop-shadow-1" filterUnits="userSpaceOnUse"><feOffset dx="15.63" dy="31.26"/><feGaussianBlur result="blur" stdDeviation="31.26"/><feFlood flood-color="#1d1e1c" flood-opacity=".5"/><feComposite in2="blur" operator="in"/><feComposite in="SourceGraphic"/></filter></defs><path class="cls-1" d="m550.18,381.68v-124.08h10.81l56.72,96.78h-5.67l56.19-96.78h10.81v124.08h-12.59v-104.41h3.01l-51.76,88.63h-6.2l-52.11-88.63h3.37v104.41h-12.59Z"/><path class="cls-1" d="m751.16,382.51c-9.12,0-17.12-1.92-24.01-5.75-6.89-3.83-12.28-9.11-16.17-15.84-3.89-6.72-5.84-14.42-5.84-23.09s1.86-16.34,5.58-23.01c3.72-6.67,8.84-11.92,15.34-15.76,6.5-3.83,13.81-5.75,21.92-5.75s15.53,1.86,21.92,5.58c6.39,3.73,11.42,8.95,15.09,15.67,3.67,6.73,5.5,14.48,5.5,23.26,0,.56-.03,1.14-.08,1.75-.06.61-.08,1.25-.08,1.92h-76.19v-8.84h69.86l-4.67,3.5c0-6.34-1.36-11.98-4.08-16.92-2.72-4.94-6.42-8.81-11.09-11.59-4.67-2.78-10.06-4.17-16.17-4.17s-11.39,1.39-16.17,4.17c-4.78,2.78-8.5,6.67-11.17,11.67-2.67,5-4,10.73-4,17.17v1.83c0,6.67,1.47,12.53,4.42,17.59,2.94,5.06,7.06,9,12.34,11.84,5.28,2.83,11.31,4.25,18.09,4.25,5.34,0,10.31-.94,14.92-2.83,4.61-1.89,8.59-4.78,11.92-8.67l6.67,7.67c-3.89,4.67-8.75,8.23-14.59,10.67-5.84,2.45-12.25,3.67-19.26,3.67Z"/><path class="cls-1" d="m836.52,382.51c-7.23,0-14.06-1.03-20.51-3.08-6.45-2.06-11.5-4.64-15.17-7.75l5.34-9.34c3.56,2.67,8.11,4.98,13.67,6.92,5.56,1.95,11.39,2.92,17.51,2.92,8.34,0,14.34-1.31,18.01-3.92,3.67-2.61,5.5-6.09,5.5-10.42,0-3.22-1.03-5.75-3.08-7.59-2.06-1.83-4.75-3.22-8.09-4.17-3.33-.94-7.06-1.75-11.17-2.42-4.11-.67-8.2-1.44-12.25-2.33-4.06-.89-7.75-2.19-11.09-3.92-3.33-1.72-6.03-4.08-8.09-7.09-2.06-3-3.08-7-3.08-12s1.33-9.06,4-12.84c2.67-3.78,6.59-6.75,11.75-8.92,5.17-2.17,11.48-3.25,18.92-3.25,5.67,0,11.34.75,17.01,2.25,5.67,1.5,10.34,3.48,14,5.92l-5.17,9.5c-3.89-2.67-8.06-4.59-12.5-5.75-4.45-1.17-8.89-1.75-13.34-1.75-7.89,0-13.7,1.36-17.42,4.08-3.73,2.73-5.59,6.2-5.59,10.42,0,3.33,1.03,5.95,3.08,7.84,2.06,1.89,4.78,3.36,8.17,4.42,3.39,1.06,7.11,1.92,11.17,2.58,4.06.67,8.11,1.47,12.17,2.42,4.06.95,7.78,2.23,11.17,3.83,3.39,1.61,6.11,3.89,8.17,6.84,2.06,2.95,3.08,6.81,3.08,11.59,0,5.11-1.42,9.53-4.25,13.25-2.83,3.73-6.95,6.61-12.34,8.67-5.39,2.06-11.92,3.08-19.59,3.08Z"/><path class="cls-1" d="m917.38,382.51c-6.56,0-12.25-1.08-17.09-3.25-4.83-2.17-8.53-5.17-11.09-9-2.56-3.83-3.83-8.25-3.83-13.25,0-4.56,1.08-8.7,3.25-12.42,2.17-3.72,5.72-6.72,10.67-9,4.94-2.28,11.59-3.42,19.92-3.42h30.18v8.84h-29.84c-8.45,0-14.31,1.5-17.59,4.5-3.28,3-4.92,6.73-4.92,11.17,0,5,1.94,9,5.84,12,3.89,3,9.34,4.5,16.34,4.5s12.42-1.53,17.26-4.59c4.83-3.06,8.36-7.47,10.59-13.25l2.67,8.17c-2.23,5.78-6.09,10.39-11.59,13.84-5.5,3.45-12.42,5.17-20.76,5.17Zm30.18-.83v-19.34l-.5-3.17v-32.34c0-7.45-2.08-13.17-6.25-17.17-4.17-4-10.37-6-18.59-6-5.67,0-11.06.94-16.17,2.83-5.11,1.89-9.45,4.39-13,7.5l-5.34-8.84c4.44-3.78,9.78-6.7,16.01-8.75,6.22-2.06,12.78-3.08,19.67-3.08,11.34,0,20.09,2.81,26.26,8.42,6.17,5.61,9.25,14.15,9.25,25.59v54.35h-11.34Z"/><path class="cls-1" d="m1066.26,382.51c-8.34,0-15.81-1.89-22.42-5.67-6.61-3.78-11.81-9.03-15.59-15.76-3.78-6.72-5.67-14.48-5.67-23.26s1.89-16.67,5.67-23.34c3.78-6.67,8.97-11.86,15.59-15.59,6.61-3.72,14.09-5.58,22.42-5.58,7.67,0,14.53,1.72,20.59,5.17,6.06,3.45,10.89,8.48,14.51,15.09,3.61,6.61,5.42,14.7,5.42,24.26s-1.78,17.51-5.34,24.18c-3.56,6.67-8.36,11.75-14.42,15.26-6.06,3.5-12.98,5.25-20.76,5.25Zm.83-10.5c6.22,0,11.81-1.42,16.76-4.25,4.94-2.84,8.84-6.84,11.67-12,2.83-5.17,4.25-11.14,4.25-17.92s-1.42-12.89-4.25-18.01c-2.83-5.11-6.73-9.09-11.67-11.92-4.95-2.83-10.53-4.25-16.76-4.25s-11.62,1.42-16.51,4.25c-4.89,2.83-8.78,6.81-11.67,11.92-2.89,5.11-4.33,11.12-4.33,18.01s1.44,12.75,4.33,17.92c2.89,5.17,6.78,9.17,11.67,12,4.89,2.83,10.39,4.25,16.51,4.25Zm33.01,9.67v-26.34l1.17-17.67-1.67-17.67v-62.02h11.84v123.71h-11.34Z"/><path class="cls-1" d="m1179.97,382.51c-9.12,0-17.12-1.92-24.01-5.75-6.89-3.83-12.28-9.11-16.17-15.84-3.89-6.72-5.83-14.42-5.83-23.09s1.86-16.34,5.59-23.01c3.72-6.67,8.84-11.92,15.34-15.76,6.5-3.83,13.81-5.75,21.92-5.75s15.53,1.86,21.92,5.58c6.39,3.73,11.42,8.95,15.09,15.67,3.67,6.73,5.5,14.48,5.5,23.26,0,.56-.03,1.14-.08,1.75-.06.61-.08,1.25-.08,1.92h-76.19v-8.84h69.86l-4.67,3.5c0-6.34-1.36-11.98-4.08-16.92-2.72-4.94-6.42-8.81-11.09-11.59-4.67-2.78-10.06-4.17-16.17-4.17s-11.39,1.39-16.17,4.17c-4.78,2.78-8.5,6.67-11.17,11.67-2.67,5-4,10.73-4,17.17v1.83c0,6.67,1.47,12.53,4.42,17.59,2.94,5.06,7.06,9,12.34,11.84,5.28,2.83,11.31,4.25,18.09,4.25,5.34,0,10.31-.94,14.92-2.83,4.61-1.89,8.59-4.78,11.92-8.67l6.67,7.67c-3.89,4.67-8.75,8.23-14.59,10.67-5.84,2.45-12.25,3.67-19.26,3.67Z"/><path class="cls-1" d="m549.89,540.47l56.4-125.34h22.92l56.58,125.34h-24.35l-48.52-112.98h9.31l-48.34,112.98h-23.99Zm25.96-29.01l6.27-18.26h67.68l6.27,18.26h-80.22Z"/><path class="cls-1" d="m725.9,540.47v-49.6l5.19,14.32-54.43-90.06h24.89l43.69,72.52h-13.97l44.05-72.52h22.92l-54.43,90.06,5.37-14.32v49.6h-23.28Z"/><path class="cls-1" d="m866.46,542.26c-17.19,0-30.65-4.83-40.38-14.5-9.73-9.67-14.59-23.64-14.59-41.9v-70.73h23.28v69.83c0,12.89,2.78,22.26,8.33,28.11,5.55,5.85,13.4,8.77,23.55,8.77s17.96-2.92,23.46-8.77c5.49-5.85,8.24-15.22,8.24-28.11v-69.83h22.92v70.73c0,18.26-4.87,32.23-14.59,41.9-9.73,9.67-23.13,14.5-40.2,14.5Z"/><path class="cls-1" d="m954.73,540.47v-125.34h54.79c13.61,0,25.54,2.63,35.81,7.88,10.26,5.26,18.26,12.53,23.99,21.85,5.73,9.31,8.59,20.29,8.59,32.95s-2.87,23.49-8.59,32.86c-5.73,9.37-13.73,16.68-23.99,21.94-10.27,5.25-22.2,7.88-35.81,7.88h-54.79Zm23.28-19.7h30.44c9.43,0,17.58-1.79,24.44-5.37,6.86-3.58,12.18-8.59,15.94-15.04,3.76-6.45,5.64-13.97,5.64-22.56s-1.88-16.26-5.64-22.65c-3.76-6.38-9.07-11.37-15.94-14.95-6.87-3.58-15.01-5.37-24.44-5.37h-30.44v85.95Z"/><path class="cls-1" d="m1084,540.47l56.4-125.34h22.92l56.58,125.34h-24.35l-48.52-112.98h9.31l-48.34,112.98h-23.99Zm25.96-29.01l6.27-18.26h67.68l6.27,18.26h-80.22Z"/><polygon class="cls-1" points="449.59 160.6 399.25 160.6 374.09 204.19 399.25 247.78 449.59 247.78 474.75 204.19 449.59 160.6"/><polygon class="cls-1" points="334.42 162.83 303.63 162.83 288.24 189.49 303.63 216.15 334.42 216.15 349.81 189.49 334.42 162.83"/><polygon class="cls-1" points="465.97 74.25 425.8 74.25 405.71 109.04 425.8 143.83 465.97 143.83 486.06 109.04 465.97 74.25"/><polygon class="cls-1" points="523.87 131.02 501.05 131.02 489.64 150.79 501.05 170.55 523.87 170.55 535.28 150.79 523.87 131.02"/><polygon class="cls-1" points="474.87 28.73 458.76 28.73 450.7 42.68 458.76 56.64 474.87 56.64 482.93 42.68 474.87 28.73"/><polygon class="cls-1" points="389.86 93.12 367.03 93.12 355.62 112.88 367.03 132.65 389.86 132.65 401.27 112.88 389.86 93.12"/><path class="cls-2" d="m444.38,257.59h-50.8l-30.83-53.4,11.26-19.51c-7.96-4.81-16.29-9.06-24.93-12.72l10.12,17.53-20.09,34.79h-40.17l-20.09-34.79,18.2-31.52c-8.11-1.02-16.37-1.57-24.76-1.57h-44.23c-108.73,0-196.88,88.15-196.88,196.88v219.26h241.11c108.73,0,196.88-88.15,196.88-196.88v-22.38c0-34.73-9-67.36-24.79-95.68Zm-71.15,108.45c0,12.64-10.24,22.88-22.88,22.88h-82.69v82.69c0,12.64-10.24,22.88-22.88,22.88h-3.14c-12.64,0-22.88-10.25-22.88-22.88v-82.69h-82.69c-12.64,0-22.88-10.24-22.88-22.88v-3.15c0-12.64,10.24-22.88,22.88-22.88h82.69v-82.68c0-12.64,10.24-22.88,22.88-22.88h3.14c12.64,0,22.88,10.24,22.88,22.88v82.68h82.69c12.64,0,22.88,10.24,22.88,22.88v3.15Z"/></svg>