<?xml version="1.0" encoding="UTF-8"?><svg id="Capa_1" xmlns="http://www.w3.org/2000/svg" xmlns:xlink="http://www.w3.org/1999/xlink" viewBox="0 0 567.94 608.02"><defs><style>.cls-1,.cls-2{fill:#fff;}.cls-2{filter:url(#drop-shadow-1);}</style><filter id="drop-shadow-1" filterUnits="userSpaceOnUse"><feOffset dx="16.36" dy="32.72"/><feGaussianBlur result="blur" stdDeviation="32.72"/><feFlood flood-color="#1d1e1c" flood-opacity=".5"/><feComposite in2="blur" operator="in"/><feComposite in="SourceGraphic"/></filter></defs><polygon class="cls-1" points="457.09 164.31 404.4 164.31 378.06 209.94 404.4 255.57 457.09 255.57 483.44 209.94 457.09 164.31"/><polygon class="cls-1" points="336.53 166.65 304.31 166.65 288.19 194.56 304.31 222.46 336.53 222.46 352.64 194.56 336.53 166.65"/><polygon class="cls-1" points="474.25 73.92 432.19 73.92 411.17 110.34 432.19 146.76 474.25 146.76 495.27 110.34 474.25 73.92"/><polygon class="cls-1" points="534.86 133.35 510.97 133.35 499.02 154.04 510.97 174.73 534.86 174.73 546.8 154.04 534.86 133.35"/><polygon class="cls-1" points="483.56 26.26 466.7 26.26 458.26 40.87 466.7 55.48 483.56 55.48 492 40.87 483.56 26.26"/><polygon class="cls-1" points="394.56 93.67 370.67 93.67 358.73 114.36 370.67 135.05 394.56 135.05 406.51 114.36 394.56 93.67"/><path class="cls-2" d="m477.6,366.01c0-36.36-9.43-70.51-25.95-100.16h-53.17l-32.28-55.9,11.79-20.42c-8.33-5.04-17.06-9.48-26.1-13.32l10.59,18.35-21.03,36.42h-42.05l-21.03-36.42,19.05-33c-8.49-1.07-17.14-1.64-25.92-1.64h-46.3c-113.82,0-206.1,92.27-206.1,206.1v229.53h252.4c113.82,0,206.1-92.27,206.1-206.1v-23.43Zm-100.43,13.36c0,13.23-10.72,23.95-23.95,23.95h-86.56v86.56c0,13.23-10.72,23.95-23.95,23.95h-3.29c-13.23,0-23.95-10.73-23.95-23.95v-86.56h-86.56c-13.23,0-23.95-10.72-23.95-23.95v-3.29c0-13.23,10.72-23.95,23.95-23.95h86.56v-86.56c0-13.23,10.72-23.95,23.95-23.95h3.29c13.23,0,23.95,10.72,23.95,23.95v86.56h86.56c13.23,0,23.95,10.72,23.95,23.95v3.29Z"/></svg>