<?xml version="1.0" encoding="UTF-8"?><svg id="Capa_1" xmlns="http://www.w3.org/2000/svg" viewBox="0 0 1254.51 608.02"><defs><style>.cls-1{fill:#6f768d;}</style></defs><path class="cls-1" d="m16.59,264.41V37.73h19.75l103.62,176.81h-10.36L232.26,37.73h19.75v226.68h-22.99V73.68h5.51l-94.56,161.91h-11.33L33.43,73.68h6.15v190.73h-22.99Z"/><path class="cls-1" d="m383.75,265.93c-16.65,0-31.27-3.5-43.86-10.51-12.59-7.01-22.44-16.65-29.54-28.94-7.11-12.28-10.66-26.35-10.66-42.18s3.4-29.85,10.2-42.03c6.8-12.18,16.14-21.78,28.02-28.78,11.88-7.01,25.23-10.51,40.05-10.51s28.37,3.4,40.05,10.2c11.67,6.81,20.86,16.35,27.56,28.63,6.7,12.29,10.05,26.45,10.05,42.49,0,1.02-.05,2.08-.15,3.2-.1,1.12-.15,2.28-.15,3.5h-139.19v-16.14h127.62l-8.53,6.4c0-11.57-2.49-21.88-7.46-30.91-4.98-9.03-11.73-16.09-20.25-21.17-8.53-5.07-18.38-7.61-29.54-7.61s-20.82,2.54-29.54,7.61c-8.73,5.08-15.53,12.18-20.41,21.32-4.87,9.14-7.31,19.6-7.31,31.37v3.35c0,12.18,2.69,22.9,8.07,32.13,5.38,9.24,12.89,16.45,22.54,21.63,9.64,5.18,20.66,7.77,33.05,7.77,9.75,0,18.83-1.72,27.26-5.18,8.42-3.45,15.69-8.73,21.78-15.84l12.18,14.01c-7.11,8.53-15.99,15.03-26.65,19.49-10.66,4.47-22.39,6.7-35.18,6.7Z"/><path class="cls-1" d="m539.69,265.93c-13.2,0-25.69-1.87-37.46-5.64-11.78-3.75-21.02-8.47-27.72-14.16l9.75-17.06c6.5,4.87,14.82,9.09,24.98,12.64,10.15,3.55,20.81,5.33,31.98,5.33,15.23,0,26.19-2.38,32.89-7.16,6.7-4.77,10.05-11.12,10.05-19.03,0-5.89-1.88-10.51-5.63-13.86-3.76-3.35-8.68-5.89-14.77-7.61-6.09-1.72-12.9-3.2-20.41-4.42-7.51-1.22-14.98-2.64-22.39-4.26-7.41-1.62-14.16-4.01-20.25-7.16-6.09-3.15-11.02-7.46-14.77-12.94-3.76-5.48-5.63-12.79-5.63-21.93s2.44-16.55,7.31-23.45c4.87-6.9,12.03-12.34,21.47-16.29,9.44-3.96,20.96-5.94,34.57-5.94,10.36,0,20.71,1.37,31.07,4.11,10.36,2.74,18.88,6.35,25.58,10.81l-9.44,17.36c-7.11-4.87-14.72-8.38-22.84-10.51-8.12-2.13-16.25-3.2-24.37-3.2-14.42,0-25.03,2.49-31.83,7.46-6.81,4.98-10.2,11.32-10.2,19.04,0,6.09,1.88,10.87,5.63,14.31,3.75,3.46,8.73,6.14,14.92,8.07,6.19,1.93,12.99,3.5,20.41,4.72,7.41,1.22,14.82,2.69,22.23,4.42,7.41,1.73,14.21,4.06,20.41,7.01,6.19,2.95,11.16,7.11,14.92,12.49,3.75,5.38,5.63,12.44,5.63,21.17,0,9.34-2.59,17.41-7.77,24.21-5.18,6.81-12.69,12.08-22.54,15.84-9.85,3.76-21.78,5.64-35.79,5.64Z"/><path class="cls-1" d="m687.41,265.93c-11.98,0-22.39-1.98-31.22-5.94-8.83-3.96-15.59-9.44-20.25-16.45-4.67-7.01-7.01-15.08-7.01-24.21,0-8.32,1.98-15.89,5.94-22.69,3.96-6.8,10.46-12.28,19.49-16.45,9.03-4.16,21.17-6.24,36.4-6.24h55.13v16.14h-54.52c-15.43,0-26.15,2.74-32.13,8.22-5.99,5.48-8.98,12.29-8.98,20.41,0,9.14,3.55,16.45,10.66,21.93,7.11,5.48,17.06,8.23,29.85,8.23s22.69-2.79,31.52-8.38c8.83-5.58,15.28-13.65,19.34-24.21l4.87,14.92c-4.06,10.56-11.12,18.99-21.17,25.28-10.05,6.3-22.69,9.44-37.92,9.44Zm55.13-1.52v-35.33l-.91-5.79v-59.09c0-13.6-3.81-24.06-11.42-31.37-7.61-7.31-18.94-10.96-33.96-10.96-10.36,0-20.21,1.73-29.54,5.18-9.34,3.45-17.26,8.02-23.76,13.71l-9.75-16.14c8.12-6.9,17.87-12.23,29.24-15.99,11.37-3.75,23.35-5.63,35.94-5.63,20.71,0,36.7,5.13,47.97,15.38,11.27,10.26,16.9,25.84,16.9,46.75v99.29h-20.71Z"/><path class="cls-1" d="m959.39,265.93c-15.23,0-28.89-3.45-40.96-10.35-12.08-6.9-21.58-16.49-28.48-28.78-6.9-12.28-10.35-26.45-10.35-42.49s3.45-30.46,10.35-42.64c6.9-12.18,16.4-21.67,28.48-28.48,12.08-6.8,25.74-10.2,40.96-10.2,14.01,0,26.55,3.15,37.61,9.44,11.07,6.3,19.9,15.49,26.5,27.57,6.6,12.08,9.9,26.85,9.9,44.32s-3.25,31.98-9.75,44.16c-6.5,12.18-15.28,21.47-26.35,27.87-11.07,6.39-23.71,9.59-37.92,9.59Zm1.52-19.19c11.37,0,21.57-2.59,30.61-7.77,9.03-5.18,16.14-12.49,21.32-21.93,5.18-9.44,7.77-20.35,7.77-32.74s-2.59-23.55-7.77-32.89c-5.18-9.34-12.29-16.6-21.32-21.78-9.04-5.18-19.24-7.77-30.61-7.77s-21.22,2.59-30.15,7.77c-8.94,5.18-16.04,12.44-21.32,21.78-5.28,9.34-7.92,20.31-7.92,32.89s2.64,23.3,7.92,32.74c5.28,9.44,12.38,16.75,21.32,21.93,8.93,5.18,18.98,7.77,30.15,7.77Zm60.31,17.67v-48.12l2.13-32.29-3.05-32.28V38.41h21.63v226h-20.71Z"/><path class="cls-1" d="m1167.11,265.93c-16.65,0-31.27-3.5-43.86-10.51-12.59-7.01-22.44-16.65-29.54-28.94-7.11-12.28-10.66-26.35-10.66-42.18s3.4-29.85,10.2-42.03c6.8-12.18,16.14-21.78,28.02-28.78,11.88-7.01,25.23-10.51,40.05-10.51s28.37,3.4,40.05,10.2c11.67,6.81,20.86,16.35,27.56,28.63,6.7,12.29,10.05,26.45,10.05,42.49,0,1.02-.05,2.08-.15,3.2-.1,1.12-.15,2.28-.15,3.5h-139.19v-16.14h127.62l-8.53,6.4c0-11.57-2.49-21.88-7.46-30.91-4.98-9.03-11.73-16.09-20.25-21.17-8.53-5.07-18.38-7.61-29.54-7.61s-20.82,2.54-29.54,7.61c-8.73,5.08-15.53,12.18-20.41,21.32-4.87,9.14-7.31,19.6-7.31,31.37v3.35c0,12.18,2.69,22.9,8.07,32.13,5.38,9.24,12.89,16.45,22.54,21.63,9.64,5.18,20.66,7.77,33.05,7.77,9.75,0,18.83-1.72,27.26-5.18,8.42-3.45,15.69-8.73,21.78-15.84l12.18,14.01c-7.11,8.53-15.99,15.03-26.65,19.49-10.66,4.47-22.39,6.7-35.18,6.7Z"/><path class="cls-1" d="m16.07,554.5l103.04-228.97h41.87l103.36,228.97h-44.48l-88.64-206.4h17.01l-88.32,206.4H16.07Zm47.43-52.99l11.45-33.36h123.64l11.45,33.36H63.5Z"/><path class="cls-1" d="m337.61,554.5v-90.61l9.49,26.17-99.44-164.53h45.47l79.81,132.48h-25.51l80.47-132.48h41.87l-99.44,164.53,9.81-26.17v90.61h-42.52Z"/><path class="cls-1" d="m594.38,557.77c-31.4,0-55.99-8.83-73.76-26.49-17.78-17.66-26.66-43.18-26.66-76.54v-129.2h42.52v127.57c0,23.55,5.07,40.67,15.21,51.35,10.14,10.69,24.48,16.03,43.01,16.03s32.82-5.34,42.85-16.03c10.03-10.68,15.05-27.8,15.05-51.35v-127.57h41.87v129.2c0,33.36-8.89,58.88-26.66,76.54-17.78,17.66-42.25,26.49-73.43,26.49Z"/><path class="cls-1" d="m755.63,554.5v-228.97h100.09c24.86,0,46.66,4.8,65.42,14.39,18.75,9.6,33.36,22.9,43.83,39.91,10.47,17.01,15.7,37.07,15.7,60.19s-5.23,42.91-15.7,60.02c-10.47,17.12-25.08,30.48-43.83,40.07-18.76,9.6-40.56,14.39-65.42,14.39h-100.09Zm42.52-35.98h55.61c17.22,0,32.11-3.27,44.65-9.81,12.54-6.54,22.24-15.7,29.11-27.48,6.87-11.78,10.3-25.51,10.3-41.21s-3.43-29.71-10.3-41.38c-6.87-11.66-16.57-20.77-29.11-27.31-12.54-6.54-27.43-9.81-44.65-9.81h-55.61v157.01Z"/><path class="cls-1" d="m991.8,554.5l103.04-228.97h41.87l103.36,228.97h-44.49l-88.64-206.4h17.01l-88.32,206.4h-43.83Zm47.43-52.99l11.45-33.36h123.64l11.45,33.36h-146.54Z"/></svg>