<?xml version="1.0" encoding="UTF-8"?><svg id="Capa_1" xmlns="http://www.w3.org/2000/svg" xmlns:xlink="http://www.w3.org/1999/xlink" viewBox="0 0 567.94 608.02"><defs><style>.cls-1,.cls-2{fill:#666;}.cls-2{filter:url(#drop-shadow-1);}</style><filter id="drop-shadow-1" filterUnits="userSpaceOnUse"><feOffset dx="16.36" dy="32.72"/><feGaussianBlur result="blur" stdDeviation="32.72"/><feFlood flood-color="#1d1e1c" flood-opacity=".5"/><feComposite in2="blur" operator="in"/><feComposite in="SourceGraphic"/></filter></defs><polygon class="cls-1" points="455.69 164.31 403 164.31 376.66 209.94 403 255.57 455.69 255.57 482.04 209.94 455.69 164.31"/><polygon class="cls-1" points="335.13 166.65 302.91 166.65 286.79 194.56 302.91 222.46 335.13 222.46 351.24 194.56 335.13 166.65"/><polygon class="cls-1" points="472.85 73.92 430.79 73.92 409.76 110.34 430.79 146.76 472.85 146.76 493.87 110.34 472.85 73.92"/><polygon class="cls-1" points="533.45 133.35 509.56 133.35 497.62 154.04 509.56 174.73 533.45 174.73 545.4 154.04 533.45 133.35"/><polygon class="cls-1" points="482.16 26.26 465.29 26.26 456.86 40.87 465.29 55.48 482.16 55.48 490.6 40.87 482.16 26.26"/><polygon class="cls-1" points="393.16 93.67 369.27 93.67 357.33 114.36 369.27 135.05 393.16 135.05 405.11 114.36 393.16 93.67"/><path class="cls-2" d="m476.19,366.01c0-36.36-9.43-70.51-25.95-100.16h-53.17l-32.28-55.9,11.79-20.42c-8.33-5.04-17.06-9.48-26.1-13.32l10.59,18.35-21.03,36.42h-42.05l-21.03-36.42,19.05-33c-8.49-1.07-17.14-1.64-25.92-1.64h-46.3c-113.82,0-206.1,92.27-206.1,206.1v229.53h252.4c113.82,0,206.1-92.27,206.1-206.1v-23.43Zm-100.43,13.36c0,13.23-10.72,23.95-23.95,23.95h-86.56v86.56c0,13.23-10.72,23.95-23.95,23.95h-3.29c-13.23,0-23.95-10.73-23.95-23.95v-86.56h-86.56c-13.23,0-23.95-10.72-23.95-23.95v-3.29c0-13.23,10.72-23.95,23.95-23.95h86.56v-86.56c0-13.23,10.72-23.95,23.95-23.95h3.29c13.23,0,23.95,10.72,23.95,23.95v86.56h86.56c13.23,0,23.95,10.72,23.95,23.95v3.29Z"/></svg>