<?xml version="1.0" encoding="UTF-8"?><svg id="Capa_1" xmlns="http://www.w3.org/2000/svg" xmlns:xlink="http://www.w3.org/1999/xlink" viewBox="0 0 478.91 608.02"><defs><style>.cls-1{fill:#ec7d00;}.cls-2{fill:#fff;}.cls-3{fill:#c4c4c3;}.cls-4{fill:#f9d900;filter:url(#drop-shadow-1);}</style><filter id="drop-shadow-1" filterUnits="userSpaceOnUse"><feOffset dx="8.3" dy="16.61"/><feGaussianBlur result="blur" stdDeviation="16.61"/><feFlood flood-color="#1d1e1c" flood-opacity=".5"/><feComposite in2="blur" operator="in"/><feComposite in="SourceGraphic"/></filter></defs><path class="cls-2" d="m24.13,441.38v-80.6s7.02,0,7.02,0l36.84,62.86h-3.68s36.5-62.86,36.5-62.86h7.02s0,80.6,0,80.6h-8.17s0-67.82,0-67.82h1.96s-33.62,57.57-33.62,57.57h-4.03s-33.85-57.57-33.85-57.57h2.19s0,67.82,0,67.82h-8.17Z"/><path class="cls-2" d="m154.68,441.92c-5.92,0-11.12-1.25-15.59-3.74-4.48-2.49-7.98-5.92-10.5-10.29-2.53-4.37-3.79-9.37-3.79-15,0-5.63,1.21-10.61,3.63-14.94,2.42-4.33,5.74-7.74,9.96-10.23,4.22-2.49,8.97-3.74,14.24-3.74,5.34,0,10.09,1.21,14.24,3.63,4.15,2.42,7.42,5.81,9.8,10.18,2.38,4.37,3.57,9.4,3.57,15.11,0,.36-.02.74-.05,1.14-.04.4-.05.81-.05,1.25h-49.49s0-5.74,0-5.74h45.37s-3.03,2.27-3.03,2.27c0-4.12-.88-7.78-2.65-10.99-1.77-3.21-4.17-5.72-7.2-7.53-3.03-1.8-6.53-2.71-10.5-2.71-3.9,0-7.4.9-10.5,2.71-3.1,1.81-5.52,4.33-7.26,7.58-1.73,3.25-2.6,6.97-2.6,11.15v1.19c0,4.33.96,8.14,2.87,11.42,1.91,3.29,4.58,5.85,8.01,7.69,3.43,1.84,7.35,2.76,11.75,2.76,3.47,0,6.7-.61,9.69-1.84,2.99-1.23,5.58-3.1,7.74-5.63l4.33,4.98c-2.53,3.03-5.69,5.34-9.48,6.93-3.79,1.59-7.96,2.38-12.51,2.38Z"/><path class="cls-2" d="m210.12,441.92c-4.69,0-9.13-.67-13.32-2-4.19-1.34-7.47-3.01-9.85-5.04l3.47-6.06c2.31,1.73,5.27,3.23,8.88,4.49,3.61,1.26,7.4,1.9,11.37,1.9,5.41,0,9.31-.85,11.7-2.55,2.38-1.7,3.57-3.95,3.57-6.77,0-2.09-.67-3.74-2-4.93-1.34-1.19-3.09-2.09-5.25-2.71-2.17-.61-4.59-1.14-7.26-1.57-2.67-.43-5.32-.94-7.96-1.52-2.64-.58-5.04-1.43-7.2-2.55-2.17-1.12-3.92-2.65-5.25-4.6-1.34-1.95-2-4.55-2-7.8,0-3.1.87-5.88,2.6-8.34,1.73-2.45,4.28-4.39,7.63-5.79,3.36-1.41,7.45-2.11,12.29-2.11,3.68,0,7.36.49,11.05,1.46,3.68.98,6.71,2.26,9.1,3.84l-3.36,6.17c-2.53-1.73-5.24-2.98-8.12-3.74-2.89-.76-5.78-1.14-8.66-1.14-5.13,0-8.9.89-11.32,2.65-2.42,1.77-3.63,4.03-3.63,6.77,0,2.17.67,3.86,2,5.09,1.34,1.23,3.1,2.18,5.31,2.87,2.2.69,4.62,1.25,7.26,1.68,2.63.43,5.27.96,7.91,1.57,2.63.61,5.05,1.45,7.26,2.49,2.2,1.05,3.97,2.53,5.31,4.44,1.34,1.91,2,4.42,2,7.53,0,3.32-.92,6.19-2.76,8.61-1.84,2.42-4.51,4.3-8.01,5.63-3.5,1.34-7.74,2-12.72,2Z"/><path class="cls-2" d="m262.64,441.92c-4.26,0-7.96-.7-11.1-2.11-3.14-1.41-5.54-3.36-7.2-5.85-1.66-2.49-2.49-5.36-2.49-8.61,0-2.96.7-5.65,2.11-8.07,1.41-2.42,3.72-4.37,6.93-5.85,3.21-1.48,7.53-2.22,12.94-2.22h19.6s0,5.74,0,5.74h-19.38c-5.49,0-9.3.98-11.42,2.92-2.13,1.95-3.19,4.37-3.19,7.26,0,3.25,1.26,5.85,3.79,7.8,2.53,1.95,6.06,2.92,10.61,2.92,4.33,0,8.07-.99,11.21-2.98,3.14-1.99,5.43-4.85,6.88-8.61l1.73,5.31c-1.45,3.75-3.95,6.75-7.53,8.99-3.57,2.24-8.07,3.36-13.48,3.36Zm19.6-.54v-12.56s-.33-2.06-.33-2.06v-21.01c0-4.84-1.35-8.56-4.06-11.15-2.71-2.6-6.73-3.9-12.07-3.9-3.68,0-7.18.61-10.5,1.84-3.32,1.23-6.14,2.85-8.45,4.87l-3.47-5.74c2.89-2.45,6.35-4.35,10.4-5.69,4.04-1.34,8.3-2,12.78-2,7.36,0,13.05,1.82,17.06,5.47,4.01,3.65,6.01,9.19,6.01,16.62v35.3s-7.36,0-7.36,0Z"/><path class="cls-2" d="m359.34,441.92c-5.41,0-10.27-1.23-14.57-3.68-4.3-2.45-7.67-5.86-10.13-10.23-2.45-4.37-3.68-9.4-3.68-15.11,0-5.77,1.23-10.83,3.68-15.16,2.45-4.33,5.83-7.71,10.13-10.13,4.29-2.42,9.15-3.63,14.57-3.63,4.98,0,9.44,1.12,13.37,3.36,3.93,2.24,7.07,5.51,9.42,9.8,2.35,4.3,3.52,9.55,3.52,15.76,0,6.14-1.16,11.37-3.47,15.7-2.31,4.33-5.43,7.63-9.37,9.91-3.94,2.27-8.43,3.41-13.48,3.41Zm.54-6.82c4.04,0,7.67-.92,10.88-2.76,3.21-1.84,5.74-4.44,7.58-7.8,1.84-3.36,2.76-7.24,2.76-11.64,0-4.48-.92-8.37-2.76-11.7-1.84-3.32-4.37-5.9-7.58-7.74-3.21-1.84-6.84-2.76-10.88-2.76-3.97,0-7.54.92-10.72,2.76-3.18,1.84-5.7,4.42-7.58,7.74-1.88,3.32-2.82,7.22-2.82,11.7,0,4.4.94,8.28,2.82,11.64,1.88,3.36,4.4,5.96,7.58,7.8,3.18,1.84,6.75,2.76,10.72,2.76Zm21.44,6.28v-17.11s.76-11.48.76-11.48l-1.08-11.48v-40.28s7.69,0,7.69,0v80.35s-7.36,0-7.36,0Z"/><path class="cls-2" d="m433.2,441.92c-5.92,0-11.12-1.25-15.59-3.74-4.48-2.49-7.98-5.92-10.5-10.29-2.53-4.37-3.79-9.37-3.79-15,0-5.63,1.21-10.61,3.63-14.94,2.42-4.33,5.74-7.74,9.96-10.23,4.22-2.49,8.97-3.74,14.24-3.74,5.34,0,10.09,1.21,14.24,3.63,4.15,2.42,7.42,5.81,9.8,10.18,2.38,4.37,3.57,9.4,3.57,15.11,0,.36-.02.74-.05,1.14-.04.4-.05.81-.05,1.25h-49.49s0-5.74,0-5.74h45.37s-3.03,2.27-3.03,2.27c0-4.12-.89-7.78-2.65-10.99-1.77-3.21-4.17-5.72-7.2-7.53-3.03-1.8-6.53-2.71-10.5-2.71s-7.4.9-10.5,2.71c-3.1,1.81-5.52,4.33-7.26,7.58-1.73,3.25-2.6,6.97-2.6,11.15v1.19c0,4.33.96,8.14,2.87,11.42,1.91,3.29,4.58,5.85,8.01,7.69,3.43,1.84,7.35,2.76,11.75,2.76,3.47,0,6.7-.61,9.69-1.84,2.99-1.23,5.58-3.1,7.74-5.63l4.33,4.98c-2.53,3.03-5.69,5.34-9.48,6.93-3.79,1.59-7.96,2.38-12.51,2.38Z"/><path class="cls-2" d="m23.95,544.52l36.63-81.41h14.89s36.75,81.41,36.75,81.41h-15.82s-31.52-73.39-31.52-73.39h6.05s-31.4,73.39-31.4,73.39h-15.58Zm16.86-18.84l4.07-11.86h43.96s4.07,11.86,4.07,11.86h-52.1Z"/><path class="cls-2" d="m138.27,544.52v-32.22s3.37,9.3,3.37,9.3l-35.36-58.5h16.17s28.38,47.1,28.38,47.1h-9.07s28.61-47.1,28.61-47.1h14.89s-35.36,58.5-35.36,58.5l3.49-9.3v32.22s-15.12,0-15.12,0Z"/><path class="cls-2" d="m229.56,545.68c-11.16,0-19.91-3.14-26.23-9.42-6.32-6.28-9.48-15.35-9.48-27.22v-45.94s15.12,0,15.12,0v45.36c0,8.37,1.8,14.46,5.41,18.26,3.61,3.8,8.7,5.7,15.29,5.7,6.59,0,11.67-1.9,15.24-5.7,3.57-3.8,5.35-9.89,5.35-18.26v-45.36s14.89,0,14.89,0v45.94c0,11.86-3.16,20.93-9.48,27.22-6.32,6.28-15.02,9.42-26.11,9.42Z"/><path class="cls-2" d="m286.9,544.52v-81.41s35.59,0,35.59,0c8.84,0,16.59,1.71,23.26,5.12,6.67,3.41,11.86,8.14,15.58,14.19,3.72,6.05,5.58,13.18,5.58,21.4,0,8.14-1.86,15.26-5.58,21.34-3.72,6.09-8.92,10.84-15.58,14.25-6.67,3.41-14.42,5.12-23.26,5.12h-35.59Zm15.12-12.79h19.77c6.12,0,11.42-1.16,15.88-3.49,4.46-2.33,7.91-5.58,10.35-9.77,2.44-4.19,3.66-9.07,3.66-14.65,0-5.66-1.22-10.56-3.66-14.71-2.44-4.15-5.89-7.39-10.35-9.71-4.46-2.33-9.75-3.49-15.88-3.49h-19.77s0,55.82,0,55.82Z"/><path class="cls-2" d="m370.87,544.52l36.63-81.41h14.89s36.75,81.41,36.75,81.41h-15.82s-31.52-73.39-31.52-73.39h6.05s-31.4,73.39-31.4,73.39h-15.58Zm16.86-18.84l4.07-11.86h43.96s4.07,11.86,4.07,11.86h-52.1Z"/><polygon class="cls-1" points="335.47 109.5 308.72 109.5 295.35 132.66 308.72 155.82 335.47 155.82 348.84 132.66 335.47 109.5"/><polygon class="cls-2" points="274.28 110.68 257.92 110.68 249.74 124.85 257.92 139.01 274.28 139.01 282.45 124.85 274.28 110.68"/><polygon class="cls-2" points="344.18 63.62 322.83 63.62 312.16 82.1 322.83 100.59 344.18 100.59 354.85 82.1 344.18 63.62"/><polygon class="cls-3" points="374.94 93.78 362.81 93.78 356.75 104.28 362.81 114.78 374.94 114.78 381 104.28 374.94 93.78"/><polygon class="cls-1" points="348.91 39.43 340.34 39.43 336.06 46.84 340.34 54.26 348.91 54.26 353.19 46.84 348.91 39.43"/><polygon class="cls-3" points="303.73 73.64 291.61 73.64 285.54 84.14 291.61 94.64 303.73 94.64 309.79 84.14 303.73 73.64"/><path class="cls-4" d="m332.7,161.03h-26.99l-16.38-28.38,5.98-10.36c-4.23-2.56-8.66-4.81-13.25-6.76l5.38,9.31-10.67,18.49h-21.34l-10.67-18.49,9.67-16.75c-4.31-.54-8.7-.83-13.16-.83h-23.5c-57.77,0-104.61,46.83-104.61,104.61v116.5s128.11,0,128.11,0c57.78,0,104.61-46.83,104.61-104.61v-11.89c0-18.45-4.78-35.79-13.17-50.84Zm-37.8,57.62c0,6.71-5.44,12.16-12.16,12.16h-43.93v43.93c0,6.71-5.44,12.16-12.16,12.16h-1.67c-6.71,0-12.16-5.44-12.16-12.16v-43.93h-43.93c-6.71,0-12.16-5.44-12.16-12.16v-1.67c0-6.71,5.44-12.16,12.16-12.16h43.93v-43.93c0-6.71,5.44-12.16,12.16-12.16h1.67c6.71,0,12.16,5.44,12.16,12.16v43.93s43.93,0,43.93,0c6.72,0,12.16,5.44,12.16,12.16v1.67Z"/></svg>