<?xml version="1.0" encoding="UTF-8"?><svg id="Capa_1" xmlns="http://www.w3.org/2000/svg" xmlns:xlink="http://www.w3.org/1999/xlink" viewBox="0 0 1254.51 608.02"><defs><style>.cls-1{fill:#ec7d00;}.cls-2{fill:#c4c4c3;}.cls-3{fill:#24346c;}.cls-4{fill:#f9d900;filter:url(#drop-shadow-1);}</style><filter id="drop-shadow-1" filterUnits="userSpaceOnUse"><feOffset dx="15.84" dy="31.68"/><feGaussianBlur result="blur" stdDeviation="31.68"/><feFlood flood-color="#1d1e1c" flood-opacity=".5"/><feComposite in2="blur" operator="in"/><feComposite in="SourceGraphic"/></filter></defs><path class="cls-3" d="m549.15,385.84v-125.77h10.96l57.49,98.1h-5.75l56.95-98.1h10.96v125.77h-12.76v-105.82h3.05l-52.46,89.83h-6.29l-52.82-89.83h3.41v105.82h-12.76Z"/><path class="cls-3" d="m752.87,386.69c-9.24,0-17.35-1.94-24.33-5.83-6.99-3.89-12.45-9.24-16.39-16.05-3.94-6.82-5.91-14.62-5.91-23.4s1.89-16.56,5.66-23.32c3.77-6.76,8.96-12.08,15.55-15.97,6.59-3.89,14-5.83,22.22-5.83s15.74,1.89,22.22,5.66c6.48,3.78,11.58,9.07,15.29,15.88,3.72,6.82,5.58,14.68,5.58,23.57,0,.57-.03,1.16-.08,1.77-.06.62-.08,1.27-.08,1.94h-77.23v-8.96h70.81l-4.73,3.55c0-6.42-1.38-12.14-4.14-17.15-2.76-5.01-6.51-8.93-11.24-11.74-4.73-2.81-10.2-4.22-16.39-4.22s-11.55,1.41-16.39,4.22c-4.85,2.82-8.62,6.76-11.32,11.83-2.7,5.07-4.06,10.87-4.06,17.41v1.86c0,6.76,1.49,12.7,4.48,17.83,2.98,5.13,7.15,9.13,12.5,12,5.35,2.87,11.46,4.31,18.34,4.31,5.41,0,10.45-.96,15.12-2.87,4.67-1.91,8.7-4.84,12.08-8.79l6.76,7.77c-3.94,4.73-8.87,8.34-14.79,10.81-5.91,2.48-12.42,3.72-19.52,3.72Z"/><path class="cls-3" d="m839.39,386.69c-7.32,0-14.25-1.04-20.79-3.13-6.54-2.08-11.66-4.7-15.38-7.86l5.41-9.46c3.6,2.7,8.22,5.04,13.86,7.01,5.63,1.97,11.55,2.96,17.74,2.96,8.45,0,14.53-1.32,18.25-3.97,3.72-2.65,5.58-6.17,5.58-10.56,0-3.27-1.04-5.83-3.13-7.69-2.09-1.86-4.82-3.27-8.2-4.22-3.38-.96-7.16-1.77-11.32-2.45-4.17-.68-8.31-1.46-12.42-2.37-4.11-.9-7.86-2.22-11.24-3.97-3.38-1.75-6.11-4.14-8.2-7.18-2.09-3.04-3.13-7.1-3.13-12.17s1.35-9.18,4.06-13.01c2.7-3.83,6.68-6.84,11.91-9.04,5.24-2.2,11.63-3.3,19.18-3.3,5.75,0,11.49.76,17.24,2.28,5.75,1.52,10.48,3.52,14.19,6l-5.24,9.63c-3.94-2.7-8.17-4.65-12.67-5.83-4.51-1.18-9.01-1.77-13.52-1.77-8,0-13.89,1.38-17.66,4.14-3.78,2.76-5.66,6.28-5.66,10.56,0,3.38,1.04,6.03,3.13,7.94,2.08,1.92,4.84,3.41,8.28,4.48,3.44,1.07,7.21,1.94,11.32,2.62,4.11.68,8.22,1.5,12.34,2.45,4.11.96,7.88,2.26,11.32,3.89,3.44,1.63,6.19,3.95,8.28,6.93,2.08,2.99,3.13,6.9,3.13,11.74,0,5.18-1.44,9.66-4.31,13.43-2.87,3.78-7.04,6.7-12.5,8.79-5.47,2.09-12.08,3.13-19.86,3.13Z"/><path class="cls-3" d="m921.34,386.69c-6.65,0-12.42-1.1-17.32-3.3-4.9-2.2-8.65-5.24-11.24-9.13-2.59-3.89-3.89-8.36-3.89-13.43,0-4.62,1.1-8.81,3.3-12.59,2.2-3.77,5.8-6.82,10.81-9.13,5.01-2.31,11.74-3.46,20.19-3.46h30.59v8.96h-30.25c-8.56,0-14.51,1.52-17.83,4.56-3.32,3.04-4.99,6.82-4.99,11.32,0,5.07,1.97,9.13,5.91,12.17,3.94,3.04,9.46,4.56,16.56,4.56s12.59-1.55,17.49-4.65c4.9-3.1,8.48-7.58,10.73-13.43l2.7,8.28c-2.26,5.86-6.17,10.54-11.74,14.03-5.58,3.49-12.59,5.24-21.04,5.24Zm30.59-.84v-19.6l-.51-3.21v-32.78c0-7.55-2.11-13.35-6.34-17.41-4.22-4.06-10.51-6.08-18.84-6.08-5.75,0-11.21.96-16.39,2.87-5.18,1.92-9.58,4.45-13.18,7.6l-5.41-8.96c4.5-3.83,9.91-6.79,16.22-8.87,6.31-2.08,12.95-3.13,19.94-3.13,11.49,0,20.36,2.85,26.61,8.53,6.25,5.69,9.38,14.34,9.38,25.94v55.09h-11.49Z"/><path class="cls-3" d="m1072.25,386.69c-8.45,0-16.03-1.91-22.73-5.75-6.7-3.83-11.97-9.15-15.8-15.97-3.83-6.82-5.75-14.67-5.75-23.57s1.91-16.9,5.75-23.66c3.83-6.76,9.1-12.02,15.8-15.8,6.7-3.77,14.28-5.66,22.73-5.66,7.77,0,14.73,1.75,20.87,5.24,6.14,3.49,11.04,8.59,14.7,15.29,3.66,6.7,5.49,14.9,5.49,24.59s-1.8,17.74-5.41,24.5c-3.61,6.76-8.48,11.91-14.62,15.46-6.14,3.55-13.15,5.32-21.04,5.32Zm.84-10.65c6.31,0,11.97-1.44,16.98-4.31,5.01-2.87,8.96-6.93,11.83-12.17,2.87-5.24,4.31-11.29,4.31-18.17s-1.44-13.07-4.31-18.25c-2.87-5.18-6.82-9.21-11.83-12.08-5.01-2.87-10.68-4.31-16.98-4.31s-11.77,1.44-16.73,4.31c-4.96,2.87-8.9,6.9-11.83,12.08-2.93,5.18-4.39,11.27-4.39,18.25s1.46,12.93,4.39,18.17c2.93,5.24,6.87,9.29,11.83,12.17,4.96,2.87,10.53,4.31,16.73,4.31Zm33.46,9.8v-26.7l1.18-17.91-1.69-17.91v-62.86h12v125.39h-11.49Z"/><path class="cls-3" d="m1187.49,386.69c-9.24,0-17.35-1.94-24.33-5.83-6.99-3.89-12.45-9.24-16.39-16.05-3.94-6.82-5.91-14.62-5.91-23.4s1.89-16.56,5.66-23.32c3.77-6.76,8.96-12.08,15.55-15.97,6.59-3.89,14-5.83,22.22-5.83s15.74,1.89,22.22,5.66c6.48,3.78,11.58,9.07,15.29,15.88,3.72,6.82,5.58,14.68,5.58,23.57,0,.57-.03,1.16-.08,1.77-.06.62-.08,1.27-.08,1.94h-77.23v-8.96h70.81l-4.73,3.55c0-6.42-1.38-12.14-4.14-17.15-2.76-5.01-6.51-8.93-11.24-11.74-4.73-2.81-10.2-4.22-16.39-4.22s-11.55,1.41-16.39,4.22c-4.85,2.82-8.62,6.76-11.32,11.83-2.7,5.07-4.06,10.87-4.06,17.41v1.86c0,6.76,1.49,12.7,4.48,17.83,2.98,5.13,7.15,9.13,12.5,12,5.35,2.87,11.46,4.31,18.33,4.31,5.41,0,10.45-.96,15.12-2.87,4.67-1.91,8.7-4.84,12.08-8.79l6.76,7.77c-3.94,4.73-8.87,8.34-14.79,10.81-5.91,2.48-12.42,3.72-19.52,3.72Z"/><path class="cls-3" d="m548.87,546.79l57.17-127.04h23.23l57.35,127.04h-24.68l-49.18-114.52h9.44l-49,114.52h-24.32Zm26.31-29.4l6.35-18.51h68.6l6.35,18.51h-81.3Z"/><path class="cls-3" d="m727.26,546.79v-50.27l5.26,14.52-55.17-91.29h25.23l44.28,73.5h-14.16l44.64-73.5h23.23l-55.17,91.29,5.44-14.52v50.27h-23.59Z"/><path class="cls-3" d="m869.73,548.6c-17.42,0-31.06-4.9-40.92-14.7-9.86-9.8-14.79-23.96-14.79-42.47v-71.69h23.59v70.78c0,13.07,2.81,22.57,8.44,28.49,5.63,5.93,13.58,8.89,23.86,8.89s18.21-2.96,23.77-8.89c5.56-5.93,8.35-15.43,8.35-28.49v-70.78h23.23v71.69c0,18.51-4.93,32.67-14.79,42.47-9.86,9.8-23.44,14.7-40.74,14.7Z"/><path class="cls-3" d="m959.2,546.79v-127.04h55.53c13.79,0,25.89,2.66,36.3,7.98,10.4,5.33,18.51,12.7,24.32,22.14,5.81,9.44,8.71,20.57,8.71,33.39s-2.9,23.81-8.71,33.3c-5.81,9.5-13.91,16.91-24.32,22.23-10.41,5.33-22.5,7.98-36.3,7.98h-55.53Zm23.59-19.96h30.85c9.56,0,17.81-1.81,24.77-5.45,6.96-3.63,12.34-8.71,16.15-15.24,3.81-6.53,5.72-14.16,5.72-22.87s-1.91-16.48-5.72-22.96c-3.81-6.47-9.2-11.52-16.15-15.15-6.96-3.63-15.22-5.45-24.77-5.45h-30.85v87.11Z"/><path class="cls-3" d="m1090.23,546.79l57.17-127.04h23.23l57.35,127.04h-24.68l-49.18-114.52h9.44l-49,114.52h-24.32Zm26.31-29.4l6.35-18.51h68.6l6.35,18.51h-81.3Z"/><polygon class="cls-1" points="447.2 161.76 396.18 161.76 370.67 205.94 396.18 250.13 447.2 250.13 472.71 205.94 447.2 161.76"/><polygon class="cls-3" points="330.47 164.03 299.27 164.03 283.67 191.05 299.27 218.07 330.47 218.07 346.07 191.05 330.47 164.03"/><polygon class="cls-3" points="463.81 74.24 423.09 74.24 402.73 109.51 423.09 144.77 463.81 144.77 484.17 109.51 463.81 74.24"/><polygon class="cls-2" points="522.49 131.78 499.36 131.78 487.79 151.81 499.36 171.85 522.49 171.85 534.06 151.81 522.49 131.78"/><polygon class="cls-1" points="472.83 28.1 456.5 28.1 448.33 42.24 456.5 56.39 472.83 56.39 481 42.24 472.83 28.1"/><polygon class="cls-2" points="386.66 93.36 363.53 93.36 351.96 113.4 363.53 133.43 386.66 133.43 398.22 113.4 386.66 93.36"/><path class="cls-4" d="m441.92,260.07h-51.48l-31.25-54.13,11.41-19.77c-8.07-4.88-16.51-9.18-25.27-12.89l10.26,17.77-20.36,35.26h-40.72l-20.36-35.26,18.45-31.95c-8.22-1.03-16.59-1.59-25.1-1.59h-44.83c-110.21,0-199.55,89.34-199.55,199.55v222.24h244.38c110.21,0,199.55-89.34,199.55-199.55v-22.68c0-35.2-9.13-68.27-25.13-96.98Zm-72.11,109.92c0,12.81-10.38,23.19-23.19,23.19h-83.81v83.81c0,12.81-10.38,23.19-23.19,23.19h-3.19c-12.81,0-23.19-10.38-23.19-23.19v-83.81h-83.81c-12.81,0-23.19-10.38-23.19-23.19v-3.19c0-12.81,10.38-23.19,23.19-23.19h83.81v-83.81c0-12.81,10.38-23.19,23.19-23.19h3.19c12.81,0,23.19,10.38,23.19,23.19v83.81h83.81c12.81,0,23.19,10.38,23.19,23.19v3.19Z"/></svg>