<?xml version="1.0" encoding="UTF-8"?><svg id="Capa_1" xmlns="http://www.w3.org/2000/svg" xmlns:xlink="http://www.w3.org/1999/xlink" viewBox="0 0 478.91 608.02"><defs><style>.cls-1{fill:#ec7d00;}.cls-2{fill:#c4c4c3;}.cls-3{fill:#24346c;}.cls-4{fill:#f9d900;filter:url(#drop-shadow-1);}</style><filter id="drop-shadow-1" filterUnits="userSpaceOnUse"><feOffset dx="8.39" dy="16.79"/><feGaussianBlur result="blur" stdDeviation="16.79"/><feFlood flood-color="#1d1e1c" flood-opacity=".5"/><feComposite in2="blur" operator="in"/><feComposite in="SourceGraphic"/></filter></defs><path class="cls-3" d="m21.77,440.93v-81.47s7.1,0,7.1,0l37.24,63.55h-3.72s36.89-63.55,36.89-63.55h7.1s0,81.47,0,81.47h-8.26s0-68.55,0-68.55h1.98s-33.99,58.19-33.99,58.19h-4.07s-34.22-58.19-34.22-58.19h2.21s0,68.55,0,68.55h-8.26Z"/><path class="cls-3" d="m153.73,441.48c-5.98,0-11.24-1.26-15.76-3.78-4.53-2.52-8.06-5.98-10.62-10.4-2.56-4.41-3.83-9.47-3.83-15.16,0-5.69,1.22-10.73,3.67-15.11,2.44-4.38,5.8-7.83,10.07-10.34,4.27-2.52,9.07-3.78,14.4-3.78s10.2,1.22,14.4,3.67c4.2,2.45,7.5,5.88,9.91,10.29,2.41,4.42,3.61,9.51,3.61,15.27,0,.37-.02.75-.05,1.15-.04.4-.05.82-.05,1.26h-50.03s0-5.8,0-5.8h45.87s-3.07,2.3-3.07,2.3c0-4.16-.89-7.86-2.68-11.11-1.79-3.25-4.21-5.78-7.28-7.61-3.07-1.82-6.61-2.74-10.62-2.74-3.94,0-7.48.91-10.62,2.74-3.14,1.82-5.58,4.38-7.33,7.66-1.75,3.28-2.63,7.04-2.63,11.28v1.2c0,4.38.97,8.23,2.9,11.55,1.93,3.32,4.63,5.91,8.1,7.77,3.47,1.86,7.43,2.79,11.88,2.79,3.5,0,6.77-.62,9.8-1.86,3.03-1.24,5.64-3.14,7.83-5.69l4.38,5.04c-2.56,3.06-5.75,5.4-9.58,7.01-3.83,1.61-8.05,2.41-12.64,2.41Z"/><path class="cls-3" d="m209.78,441.48c-4.74,0-9.23-.67-13.46-2.03-4.23-1.35-7.55-3.05-9.96-5.09l3.5-6.13c2.33,1.75,5.33,3.27,8.98,4.54,3.65,1.28,7.48,1.92,11.49,1.92,5.47,0,9.41-.86,11.82-2.57,2.41-1.71,3.61-4,3.61-6.84,0-2.12-.68-3.78-2.03-4.98-1.35-1.2-3.12-2.12-5.31-2.74-2.19-.62-4.64-1.15-7.33-1.59-2.7-.44-5.38-.95-8.05-1.53-2.66-.58-5.09-1.44-7.28-2.57-2.19-1.13-3.96-2.68-5.31-4.65-1.35-1.97-2.03-4.6-2.03-7.88,0-3.14.88-5.95,2.63-8.43,1.75-2.48,4.32-4.43,7.72-5.86,3.39-1.42,7.53-2.13,12.42-2.13,3.72,0,7.44.49,11.17,1.48,3.72.99,6.79,2.28,9.2,3.89l-3.39,6.24c-2.56-1.75-5.29-3.01-8.21-3.78-2.92-.77-5.84-1.15-8.76-1.15-5.18,0-9,.89-11.44,2.68-2.45,1.79-3.67,4.07-3.67,6.84,0,2.19.67,3.91,2.03,5.15,1.35,1.24,3.14,2.21,5.36,2.9,2.23.69,4.67,1.26,7.33,1.7,2.66.44,5.33.97,7.99,1.59,2.66.62,5.11,1.46,7.33,2.52,2.23,1.06,4.01,2.56,5.36,4.49,1.35,1.93,2.03,4.47,2.03,7.61,0,3.36-.93,6.26-2.79,8.7-1.86,2.45-4.56,4.34-8.1,5.69-3.54,1.35-7.83,2.03-12.86,2.03Z"/><path class="cls-3" d="m262.87,441.48c-4.31,0-8.05-.71-11.22-2.13-3.17-1.42-5.6-3.39-7.28-5.91-1.68-2.52-2.52-5.42-2.52-8.7,0-2.99.71-5.71,2.13-8.16,1.42-2.44,3.76-4.41,7.01-5.91,3.25-1.49,7.61-2.24,13.08-2.24h19.81s0,5.8,0,5.8h-19.6c-5.55,0-9.4.99-11.55,2.96-2.15,1.97-3.23,4.42-3.23,7.33,0,3.28,1.28,5.91,3.83,7.88,2.55,1.97,6.13,2.96,10.73,2.96,4.38,0,8.16-1,11.33-3.01,3.17-2.01,5.49-4.91,6.95-8.7l1.75,5.36c-1.46,3.8-4,6.82-7.61,9.09-3.61,2.26-8.16,3.39-13.63,3.39Zm19.81-.55v-12.7s-.33-2.08-.33-2.08v-21.24c0-4.89-1.37-8.65-4.1-11.28-2.74-2.63-6.81-3.94-12.21-3.94-3.72,0-7.26.62-10.62,1.86-3.36,1.24-6.2,2.88-8.54,4.93l-3.5-5.8c2.92-2.48,6.42-4.4,10.51-5.75,4.09-1.35,8.39-2.02,12.92-2.02,7.44,0,13.19,1.84,17.24,5.53,4.05,3.69,6.08,9.29,6.08,16.8v35.69s-7.44,0-7.44,0Z"/><path class="cls-3" d="m360.62,441.48c-5.47,0-10.38-1.24-14.72-3.72-4.34-2.48-7.76-5.93-10.24-10.34-2.48-4.41-3.72-9.51-3.72-15.27,0-5.84,1.24-10.95,3.72-15.33,2.48-4.38,5.89-7.79,10.24-10.24,4.34-2.44,9.25-3.67,14.72-3.67,5.04,0,9.54,1.13,13.52,3.39,3.98,2.26,7.15,5.57,9.52,9.91,2.37,4.34,3.56,9.65,3.56,15.93,0,6.2-1.17,11.49-3.5,15.87-2.34,4.38-5.49,7.72-9.47,10.02-3.98,2.3-8.52,3.45-13.63,3.45Zm.55-6.9c4.09,0,7.75-.93,11-2.79,3.25-1.86,5.8-4.49,7.66-7.88,1.86-3.39,2.79-7.32,2.79-11.77,0-4.52-.93-8.47-2.79-11.82-1.86-3.36-4.42-5.97-7.66-7.83-3.25-1.86-6.92-2.79-11-2.79-4.01,0-7.63.93-10.84,2.79-3.21,1.86-5.77,4.47-7.66,7.83-1.9,3.36-2.85,7.3-2.85,11.82,0,4.45.95,8.37,2.85,11.77,1.9,3.39,4.45,6.02,7.66,7.88,3.21,1.86,6.82,2.79,10.84,2.79Zm21.67,6.35v-17.3s.77-11.6.77-11.6l-1.09-11.6v-40.72s7.77,0,7.77,0v81.23s-7.44,0-7.44,0Z"/><path class="cls-3" d="m435.28,441.48c-5.98,0-11.24-1.26-15.76-3.78-4.53-2.52-8.06-5.98-10.62-10.4-2.56-4.41-3.83-9.47-3.83-15.16,0-5.69,1.22-10.73,3.67-15.11,2.44-4.38,5.8-7.83,10.07-10.34,4.27-2.52,9.07-3.78,14.4-3.78,5.4,0,10.2,1.22,14.4,3.67,4.2,2.45,7.5,5.88,9.91,10.29,2.41,4.42,3.61,9.51,3.61,15.27,0,.37-.02.75-.05,1.15-.04.4-.05.82-.05,1.26h-50.03s0-5.8,0-5.8h45.87s-3.06,2.3-3.06,2.3c0-4.16-.89-7.86-2.68-11.11-1.79-3.25-4.21-5.78-7.28-7.61-3.07-1.82-6.61-2.74-10.62-2.74s-7.48.91-10.62,2.74c-3.14,1.82-5.58,4.38-7.33,7.66-1.75,3.28-2.63,7.04-2.63,11.28v1.2c0,4.38.97,8.23,2.9,11.55,1.93,3.32,4.63,5.91,8.1,7.77,3.47,1.86,7.43,2.79,11.88,2.79,3.5,0,6.77-.62,9.8-1.86,3.03-1.24,5.64-3.14,7.83-5.69l4.38,5.04c-2.56,3.06-5.75,5.4-9.58,7.01-3.83,1.61-8.05,2.41-12.64,2.41Z"/><path class="cls-3" d="m21.58,545.2l37.03-82.3h15.05s37.15,82.3,37.15,82.3h-15.99s-31.86-74.18-31.86-74.18h6.11s-31.74,74.18-31.74,74.18h-15.75Zm17.05-19.05l4.11-11.99h44.44s4.11,11.99,4.11,11.99h-52.67Z"/><path class="cls-3" d="m137.15,545.2v-32.57s3.41,9.41,3.41,9.41l-35.74-59.14h16.34s28.69,47.61,28.69,47.61h-9.17s28.92-47.61,28.92-47.61h15.05s-35.74,59.14-35.74,59.14l3.53-9.41v32.57s-15.28,0-15.28,0Z"/><path class="cls-3" d="m229.43,546.37c-11.29,0-20.12-3.17-26.51-9.52-6.39-6.35-9.58-15.52-9.58-27.51v-46.44s15.28,0,15.28,0v45.85c0,8.46,1.82,14.62,5.47,18.46,3.64,3.84,8.8,5.76,15.46,5.76,6.66,0,11.79-1.92,15.4-5.76,3.6-3.84,5.41-9.99,5.41-18.46v-45.85s15.05,0,15.05,0v46.44c0,11.99-3.19,21.16-9.58,27.51-6.39,6.35-15.19,9.52-26.39,9.52Z"/><path class="cls-3" d="m287.39,545.2v-82.3s35.97,0,35.97,0c8.93,0,16.77,1.73,23.51,5.17,6.74,3.45,11.99,8.23,15.75,14.34,3.76,6.11,5.64,13.32,5.64,21.63,0,8.23-1.88,15.42-5.64,21.57-3.76,6.15-9.01,10.95-15.75,14.4-6.74,3.45-14.58,5.17-23.51,5.17h-35.97Zm15.28-12.93h19.99c6.19,0,11.54-1.18,16.05-3.53,4.51-2.35,7.99-5.64,10.46-9.88,2.47-4.23,3.7-9.17,3.7-14.81,0-5.72-1.23-10.68-3.7-14.87-2.47-4.19-5.96-7.47-10.46-9.82-4.51-2.35-9.86-3.53-16.05-3.53h-19.99s0,56.43,0,56.43Z"/><path class="cls-3" d="m372.27,545.2l37.03-82.3h15.05s37.15,82.3,37.15,82.3h-15.99s-31.86-74.18-31.86-74.18h6.11s-31.74,74.18-31.74,74.18h-15.75Zm17.05-19.05l4.12-11.99h44.44s4.11,11.99,4.11,11.99h-52.67Z"/><polygon class="cls-1" points="336.49 105.45 309.45 105.45 295.94 128.86 309.45 152.27 336.49 152.27 350.01 128.86 336.49 105.45"/><polygon class="cls-3" points="274.63 106.64 258.1 106.64 249.83 120.96 258.1 135.28 274.63 135.28 282.9 120.96 274.63 106.64"/><polygon class="cls-3" points="345.29 59.07 323.71 59.07 312.93 77.75 323.71 96.44 345.29 96.44 356.08 77.75 345.29 59.07"/><polygon class="cls-2" points="376.39 89.56 364.13 89.56 358 100.17 364.13 110.79 376.39 110.79 382.52 100.17 376.39 89.56"/><polygon class="cls-1" points="350.07 34.62 341.42 34.62 337.09 42.11 341.42 49.61 350.07 49.61 354.4 42.11 350.07 34.62"/><polygon class="cls-2" points="304.41 69.2 292.15 69.2 286.02 79.82 292.15 90.43 304.41 90.43 310.54 79.82 304.41 69.2"/><path class="cls-4" d="m333.69,157.54h-27.28l-16.56-28.68,6.05-10.48c-4.27-2.58-8.75-4.86-13.39-6.83l5.44,9.41-10.79,18.69h-21.58l-10.79-18.69,9.78-16.93c-4.36-.55-8.79-.84-13.3-.84h-23.76c-58.4,0-105.75,47.34-105.75,105.75v117.77s129.5,0,129.5,0c58.4,0,105.75-47.34,105.75-105.75v-12.02c0-18.65-4.84-36.18-13.31-51.39Zm-38.21,58.25c0,6.79-5.5,12.29-12.29,12.29h-44.41v44.41c0,6.79-5.5,12.29-12.29,12.29h-1.69c-6.79,0-12.29-5.5-12.29-12.29v-44.41s-44.41,0-44.41,0c-6.79,0-12.29-5.5-12.29-12.29v-1.69c0-6.79,5.5-12.29,12.29-12.29h44.41v-44.41c0-6.79,5.5-12.29,12.29-12.29h1.69c6.79,0,12.29,5.5,12.29,12.29v44.41s44.41,0,44.41,0c6.79,0,12.29,5.5,12.29,12.29v1.69Z"/></svg>