<?xml version="1.0" encoding="UTF-8"?><svg id="Capa_1" xmlns="http://www.w3.org/2000/svg" xmlns:xlink="http://www.w3.org/1999/xlink" viewBox="0 0 1254.51 608.02"><defs><style>.cls-1{fill:#d7d7d7;}.cls-2{fill:#1d1d1b;}.cls-3{fill:#575756;}.cls-4{fill:#c4c4c3;filter:url(#drop-shadow-1);}</style><filter id="drop-shadow-1" filterUnits="userSpaceOnUse"><feOffset dx="15.7" dy="31.4"/><feGaussianBlur result="blur" stdDeviation="31.4"/><feFlood flood-color="#1d1e1c" flood-opacity=".5"/><feComposite in2="blur" operator="in"/><feComposite in="SourceGraphic"/></filter></defs><path class="cls-2" d="m549.84,373.13v-124.65h10.86l56.98,97.22h-5.7l56.45-97.22h10.86v124.65h-12.64v-104.88h3.03l-51.99,89.03h-6.23l-52.35-89.03h3.38v104.88h-12.64Z"/><path class="cls-2" d="m751.73,373.96c-9.16,0-17.2-1.93-24.12-5.78-6.92-3.85-12.34-9.15-16.25-15.91-3.91-6.75-5.86-14.49-5.86-23.2s1.87-16.41,5.61-23.11c3.74-6.7,8.88-11.98,15.41-15.83,6.53-3.85,13.87-5.78,22.02-5.78s15.6,1.87,22.02,5.61c6.42,3.74,11.47,8.99,15.16,15.74,3.68,6.76,5.53,14.54,5.53,23.36,0,.56-.03,1.15-.08,1.76-.06.61-.08,1.26-.08,1.93h-76.54v-8.88h70.17l-4.69,3.52c0-6.36-1.37-12.03-4.1-17-2.74-4.97-6.45-8.85-11.14-11.64-4.69-2.79-10.11-4.19-16.25-4.19s-11.45,1.4-16.25,4.19c-4.8,2.79-8.54,6.7-11.22,11.72-2.68,5.02-4.02,10.78-4.02,17.25v1.84c0,6.7,1.48,12.59,4.44,17.67,2.96,5.08,7.09,9.04,12.39,11.89,5.3,2.85,11.36,4.27,18.17,4.27,5.36,0,10.35-.95,14.99-2.85,4.63-1.9,8.63-4.8,11.97-8.71l6.7,7.7c-3.91,4.69-8.79,8.26-14.65,10.72-5.86,2.46-12.31,3.68-19.34,3.68Z"/><path class="cls-2" d="m837.48,373.96c-7.26,0-14.13-1.03-20.6-3.1-6.48-2.06-11.56-4.66-15.24-7.79l5.36-9.38c3.57,2.68,8.15,5,13.73,6.95,5.58,1.95,11.44,2.93,17.59,2.93,8.37,0,14.4-1.31,18.09-3.94,3.68-2.62,5.53-6.11,5.53-10.47,0-3.24-1.03-5.78-3.1-7.62-2.07-1.84-4.77-3.24-8.12-4.19-3.35-.95-7.09-1.76-11.22-2.43-4.13-.67-8.24-1.45-12.31-2.34-4.08-.89-7.79-2.2-11.14-3.94-3.35-1.73-6.06-4.1-8.12-7.12-2.07-3.01-3.1-7.03-3.1-12.06s1.34-9.1,4.02-12.9c2.68-3.79,6.62-6.78,11.81-8.96,5.19-2.18,11.53-3.27,19.01-3.27,5.69,0,11.39.75,17.08,2.26,5.69,1.51,10.38,3.49,14.07,5.95l-5.19,9.55c-3.91-2.68-8.1-4.61-12.56-5.78-4.47-1.17-8.93-1.76-13.4-1.76-7.93,0-13.76,1.37-17.5,4.1-3.74,2.74-5.61,6.23-5.61,10.47,0,3.35,1.03,5.97,3.1,7.87,2.06,1.9,4.8,3.38,8.21,4.44,3.4,1.06,7.14,1.93,11.22,2.6,4.07.67,8.15,1.48,12.23,2.43,4.07.95,7.81,2.24,11.22,3.85,3.4,1.62,6.14,3.91,8.21,6.87,2.06,2.96,3.1,6.84,3.1,11.64,0,5.14-1.42,9.58-4.27,13.31-2.85,3.74-6.98,6.64-12.39,8.71-5.42,2.07-11.97,3.1-19.68,3.1Z"/><path class="cls-2" d="m918.7,373.96c-6.59,0-12.31-1.09-17.17-3.27-4.86-2.18-8.57-5.19-11.14-9.04-2.57-3.85-3.85-8.29-3.85-13.31,0-4.58,1.09-8.74,3.27-12.48,2.18-3.74,5.75-6.75,10.72-9.04,4.97-2.29,11.64-3.43,20.01-3.43h30.31v8.88h-29.98c-8.49,0-14.38,1.51-17.67,4.52-3.29,3.01-4.94,6.76-4.94,11.22,0,5.02,1.95,9.04,5.86,12.06,3.91,3.01,9.38,4.52,16.41,4.52s12.48-1.53,17.33-4.61c4.86-3.07,8.4-7.51,10.63-13.31l2.68,8.21c-2.24,5.81-6.11,10.44-11.64,13.9-5.53,3.46-12.48,5.19-20.85,5.19Zm30.31-.84v-19.43l-.5-3.18v-32.49c0-7.48-2.09-13.23-6.28-17.25-4.19-4.02-10.41-6.03-18.67-6.03-5.69,0-11.11.95-16.25,2.85-5.14,1.9-9.49,4.41-13.06,7.54l-5.36-8.88c4.46-3.79,9.82-6.73,16.08-8.79,6.25-2.06,12.84-3.1,19.76-3.1,11.39,0,20.18,2.82,26.38,8.46,6.2,5.64,9.3,14.21,9.3,25.71v54.6h-11.39Z"/><path class="cls-2" d="m1068.26,373.96c-8.37,0-15.88-1.9-22.53-5.69-6.64-3.79-11.86-9.07-15.66-15.83-3.8-6.75-5.69-14.54-5.69-23.36s1.9-16.75,5.69-23.45c3.79-6.7,9.02-11.92,15.66-15.66,6.64-3.74,14.15-5.61,22.53-5.61,7.7,0,14.6,1.73,20.68,5.19,6.08,3.46,10.94,8.52,14.57,15.16,3.63,6.64,5.44,14.77,5.44,24.37s-1.79,17.59-5.36,24.29c-3.57,6.7-8.4,11.81-14.49,15.32-6.09,3.52-13.04,5.28-20.85,5.28Zm.84-10.55c6.25,0,11.86-1.42,16.83-4.27,4.97-2.85,8.88-6.87,11.72-12.06,2.85-5.19,4.27-11.19,4.27-18s-1.42-12.95-4.27-18.09c-2.85-5.13-6.76-9.13-11.72-11.98-4.97-2.85-10.58-4.27-16.83-4.27s-11.67,1.42-16.58,4.27c-4.91,2.85-8.82,6.84-11.72,11.98-2.91,5.14-4.35,11.17-4.35,18.09s1.45,12.81,4.35,18c2.9,5.19,6.81,9.21,11.72,12.06,4.91,2.85,10.44,4.27,16.58,4.27Zm33.16,9.71v-26.46l1.17-17.75-1.67-17.75v-62.3h11.89v124.27h-11.39Z"/><path class="cls-2" d="m1182.48,373.96c-9.16,0-17.2-1.93-24.12-5.78-6.92-3.85-12.34-9.15-16.25-15.91-3.91-6.75-5.86-14.49-5.86-23.2s1.87-16.41,5.61-23.11c3.74-6.7,8.88-11.98,15.41-15.83,6.53-3.85,13.87-5.78,22.02-5.78s15.6,1.87,22.02,5.61c6.42,3.74,11.47,8.99,15.16,15.74,3.69,6.76,5.53,14.54,5.53,23.36,0,.56-.03,1.15-.08,1.76-.06.61-.08,1.26-.08,1.93h-76.54v-8.88h70.17l-4.69,3.52c0-6.36-1.37-12.03-4.1-17-2.74-4.97-6.45-8.85-11.14-11.64-4.69-2.79-10.11-4.19-16.25-4.19s-11.45,1.4-16.25,4.19c-4.8,2.79-8.54,6.7-11.22,11.72-2.68,5.02-4.02,10.78-4.02,17.25v1.84c0,6.7,1.48,12.59,4.44,17.67,2.96,5.08,7.09,9.04,12.39,11.89,5.3,2.85,11.36,4.27,18.17,4.27,5.36,0,10.35-.95,14.99-2.85,4.63-1.9,8.62-4.8,11.97-8.71l6.7,7.7c-3.91,4.69-8.79,8.26-14.65,10.72-5.86,2.46-12.31,3.68-19.34,3.68Z"/><path class="cls-2" d="m549.55,532.64l56.66-125.91h23.02l56.84,125.91h-24.46l-48.74-113.5h9.35l-48.56,113.5h-24.1Zm26.08-29.14l6.3-18.35h67.99l6.3,18.35h-80.58Z"/><path class="cls-2" d="m726.36,532.64v-49.82l5.22,14.39-54.68-90.47h25l43.89,72.85h-14.03l44.25-72.85h23.02l-54.68,90.47,5.4-14.39v49.82h-23.38Z"/><path class="cls-2" d="m867.55,534.44c-17.27,0-30.79-4.86-40.56-14.57-9.77-9.71-14.66-23.74-14.66-42.09v-71.05h23.38v70.15c0,12.95,2.79,22.36,8.36,28.24,5.58,5.88,13.46,8.81,23.65,8.81s18.05-2.94,23.56-8.81c5.51-5.87,8.27-15.29,8.27-28.24v-70.15h23.02v71.05c0,18.35-4.89,32.38-14.66,42.09-9.77,9.71-23.23,14.57-40.38,14.57Z"/><path class="cls-2" d="m956.22,532.64v-125.91h55.04c13.67,0,25.66,2.64,35.97,7.91,10.31,5.28,18.35,12.59,24.1,21.94,5.76,9.35,8.63,20.39,8.63,33.09s-2.88,23.59-8.63,33c-5.76,9.42-13.79,16.76-24.1,22.03-10.31,5.28-22.3,7.91-35.97,7.91h-55.04Zm23.38-19.78h30.58c9.47,0,17.65-1.8,24.55-5.4,6.89-3.6,12.23-8.63,16.01-15.11,3.78-6.48,5.67-14.03,5.67-22.66s-1.89-16.34-5.67-22.75c-3.78-6.41-9.11-11.42-16.01-15.02-6.9-3.6-15.08-5.4-24.55-5.4h-30.58v86.34Z"/><path class="cls-2" d="m1086.08,532.64l56.66-125.91h23.02l56.84,125.91h-24.46l-48.74-113.5h9.35l-48.56,113.5h-24.1Zm26.08-29.14l6.3-18.35h67.99l6.3,18.35h-80.58Z"/><polygon class="cls-3" points="448.79 151.05 398.23 151.05 372.95 194.83 398.23 238.62 448.79 238.62 474.07 194.83 448.79 151.05"/><polygon class="cls-2" points="333.1 153.29 302.18 153.29 286.71 180.07 302.18 206.85 333.1 206.85 348.56 180.07 333.1 153.29"/><polygon class="cls-2" points="465.25 64.31 424.9 64.31 404.72 99.26 424.9 134.2 465.25 134.2 485.43 99.26 465.25 64.31"/><polygon class="cls-1" points="523.41 121.33 500.49 121.33 489.02 141.19 500.49 161.04 523.41 161.04 534.87 141.19 523.41 121.33"/><polygon class="cls-3" points="474.19 18.58 458 18.58 449.91 32.59 458 46.61 474.19 46.61 482.29 32.59 474.19 18.58"/><polygon class="cls-1" points="388.79 83.26 365.86 83.26 354.4 103.11 365.86 122.96 388.79 122.96 400.25 103.11 388.79 83.26"/><path class="cls-4" d="m443.56,248.48h-51.03l-30.97-53.65,11.31-19.59c-7.99-4.83-16.37-9.1-25.05-12.78l10.17,17.61-20.18,34.95h-40.36l-20.18-34.95,18.28-31.67c-8.15-1.02-16.45-1.58-24.87-1.58h-44.43c-109.23,0-197.77,88.55-197.77,197.77v220.25h242.2c109.23,0,197.77-88.55,197.77-197.77v-22.48c0-34.89-9.05-67.66-24.9-96.12Zm-71.47,108.94c0,12.69-10.29,22.98-22.98,22.98h-83.06v83.06c0,12.69-10.29,22.99-22.98,22.99h-3.16c-12.69,0-22.98-10.29-22.98-22.99v-83.06h-83.06c-12.69,0-22.98-10.29-22.98-22.98v-3.16c0-12.69,10.29-22.98,22.98-22.98h83.06v-83.06c0-12.69,10.29-22.98,22.98-22.98h3.16c12.69,0,22.98,10.29,22.98,22.98v83.06h83.06c12.69,0,22.98,10.29,22.98,22.98v3.16Z"/></svg>