<svg id="eaCj9NfLV8U1" xmlns="http://www.w3.org/2000/svg" xmlns:xlink="http://www.w3.org/1999/xlink" viewBox="0 0 1300 800" shape-rendering="geometricPrecision" text-rendering="geometricPrecision" style="background-color:#fff"><style><![CDATA[#eaCj9NfLV8U4_tr {animation: eaCj9NfLV8U4_tr__tr 9000ms linear infinite normal forwards}@keyframes eaCj9NfLV8U4_tr__tr { 0% {transform: translate(539.700012px,400.800018px) rotate(0deg)} 100% {transform: translate(539.700012px,400.800018px) rotate(154.484924deg)}} #eaCj9NfLV8U12 {animation-name: eaCj9NfLV8U12_s_p, eaCj9NfLV8U12_s_do;animation-duration: 9000ms;animation-fill-mode: forwards;animation-timing-function: linear;animation-direction: normal;animation-iteration-count: infinite;}@keyframes eaCj9NfLV8U12_s_p { 0% {stroke: #c61973} 18.888889% {stroke: #c61973} 30.555556% {stroke: #c61973} 36.666667% {stroke: #f67a02} 42.222222% {stroke: #f67a02} 46.666667% {stroke: #2cb647} 100% {stroke: #2cb647}}@keyframes eaCj9NfLV8U12_s_do { 0% {stroke-dashoffset: 240.585786} 18.888889% {stroke-dashoffset: 240.585786} 46.666667% {stroke-dashoffset: 0} 100% {stroke-dashoffset: 0}} #eaCj9NfLV8U13_to {animation: eaCj9NfLV8U13_to__to 9000ms linear infinite normal forwards}@keyframes eaCj9NfLV8U13_to__to { 0% {transform: translate(1189.039978px,196.170006px);animation-timing-function: cubic-bezier(0.455,0.03,0.515,0.955)} 16.666667% {transform: translate(1189.039978px,222.243455px);animation-timing-function: cubic-bezier(0.455,0.03,0.515,0.955)} 33.333333% {transform: translate(1189.039978px,196.170006px);animation-timing-function: cubic-bezier(0.455,0.03,0.515,0.955)} 50% {transform: translate(1189.039978px,222.243455px);animation-timing-function: cubic-bezier(0.455,0.03,0.515,0.955)} 66.666667% {transform: translate(1189.039978px,196.170006px);animation-timing-function: cubic-bezier(0.455,0.03,0.515,0.955)} 83.333333% {transform: translate(1189.039978px,222.243455px);animation-timing-function: cubic-bezier(0.455,0.03,0.515,0.955)} 100% {transform: translate(1189.039978px,196.170006px)}} #eaCj9NfLV8U25_tr {animation: eaCj9NfLV8U25_tr__tr 9000ms linear infinite normal forwards}@keyframes eaCj9NfLV8U25_tr__tr { 0% {transform: translate(822.393967px,300.672171px) rotate(-136.482358deg)} 4.444444% {transform: translate(822.393967px,300.672171px) rotate(-120.091471deg)} 6.666667% {transform: translate(822.393967px,300.672171px) rotate(-129.104781deg)} 8.888889% {transform: translate(822.393967px,300.672171px) rotate(-113.406572deg)} 12.222222% {transform: translate(822.393967px,300.672171px) rotate(-129.59833deg)} 22.222222% {transform: translate(822.393967px,300.672171px) rotate(-62.719596deg)} 23.333333% {transform: translate(822.393967px,300.672171px) rotate(-70.559484deg)} 25.555556% {transform: translate(822.393967px,300.672171px) rotate(-64.406699deg)} 27.777778% {transform: translate(822.393967px,300.672171px) rotate(-90.830834deg)} 30% {transform: translate(822.393967px,300.672171px) rotate(-77.194097deg)} 35.555556% {transform: translate(822.393967px,300.672171px) rotate(-83.781715deg)} 38.888889% {transform: translate(822.393967px,300.672171px) rotate(-43.409426deg)} 40% {transform: translate(822.393967px,300.672171px) rotate(-49.977315deg)} 41.111111% {transform: translate(822.393967px,300.672171px) rotate(-34.801469deg)} 45.555556% {transform: translate(822.393967px,300.672171px) rotate(-40.04559deg)} 51.111111% {transform: translate(822.393967px,300.672171px) rotate(40.984585deg)} 52.222222% {transform: translate(822.393967px,300.672171px) rotate(35.234732deg)} 53.333333% {transform: translate(822.393967px,300.672171px) rotate(42.29452deg)} 54.444444% {transform: translate(822.393967px,300.672171px) rotate(35.234732deg)} 55.555556% {transform: translate(822.393967px,300.672171px) rotate(42.29452deg)} 56.666667% {transform: translate(822.393967px,300.672171px) rotate(35.234732deg)} 57.777778% {transform: translate(822.393967px,300.672171px) rotate(42.29452deg)} 71.111111% {transform: translate(822.393967px,300.672171px) rotate(90.837517deg)} 73.333333% {transform: translate(822.393967px,300.672171px) rotate(85.838637deg)} 74.444444% {transform: translate(822.393967px,300.672171px) rotate(79.474441deg)} 75.555556% {transform: translate(822.393967px,300.672171px) rotate(87.429453deg)} 76.666667% {transform: translate(822.393967px,300.672171px) rotate(77.487936deg)} 85.555556% {transform: translate(822.393967px,300.672171px) rotate(131.008241deg)} 86.666667% {transform: translate(822.393967px,300.672171px) rotate(125.66056deg)} 87.777778% {transform: translate(822.393967px,300.672171px) rotate(131.008241deg)} 88.888889% {transform: translate(822.393967px,300.672171px) rotate(125.66056deg)} 90% {transform: translate(822.393967px,300.672171px) rotate(131.008241deg)} 91.111111% {transform: translate(822.393967px,300.672171px) rotate(125.66056deg)} 92.222222% {transform: translate(822.393967px,300.672171px) rotate(131.008241deg)} 93.333333% {transform: translate(822.393967px,300.672171px) rotate(125.66056deg)} 94.444444% {transform: translate(822.393967px,300.672171px) rotate(131.008241deg)} 95.555556% {transform: translate(822.393967px,300.672171px) rotate(125.66056deg)} 100% {transform: translate(822.393967px,300.672171px) rotate(-136.482358deg)}} #eaCj9NfLV8U26_ts {animation: eaCj9NfLV8U26_ts__ts 9000ms linear infinite normal forwards}@keyframes eaCj9NfLV8U26_ts__ts { 0% {transform: translate(1138.886414px,441.184906px) scale(0,0)} 46.666667% {transform: translate(1138.886414px,441.184906px) scale(0,0)} 48.888889% {transform: translate(1138.886414px,441.184906px) scale(1.5,1.5)} 52.222222% {transform: translate(1138.886414px,441.184906px) scale(1,1)} 100% {transform: translate(1138.886414px,441.184906px) scale(1,1)}} #eaCj9NfLV8U29_tr {animation: eaCj9NfLV8U29_tr__tr 9000ms linear infinite normal forwards}@keyframes eaCj9NfLV8U29_tr__tr { 0% {transform: translate(1072.433785px,425.21143px) rotate(0deg)} 18.888889% {transform: translate(1072.433785px,425.21143px) rotate(360deg)} 100% {transform: translate(1072.433785px,425.21143px) rotate(360deg)}} #eaCj9NfLV8U29_ts {animation: eaCj9NfLV8U29_ts__ts 9000ms linear infinite normal forwards}@keyframes eaCj9NfLV8U29_ts__ts { 0% {transform: scale(0,0)} 2.222222% {transform: scale(1,1)} 16.666667% {transform: scale(1,1)} 18.888889% {transform: scale(0,0)} 100% {transform: scale(0,0)}} #eaCj9NfLV8U34_to {animation: eaCj9NfLV8U34_to__to 9000ms linear infinite normal forwards}@keyframes eaCj9NfLV8U34_to__to { 0% {offset-distance: 0%} 85.111111% {offset-distance: 0%} 97.333333% {offset-distance: 100%} 100% {offset-distance: 100%}} #eaCj9NfLV8U34_tr {animation: eaCj9NfLV8U34_tr__tr 9000ms linear infinite normal forwards}@keyframes eaCj9NfLV8U34_tr__tr { 0% {transform: rotate(-4.510824deg)} 85.111111% {transform: rotate(-4.510824deg)} 97.333333% {transform: rotate(21.917344deg)} 100% {transform: rotate(21.917344deg)}} #eaCj9NfLV8U34_ts {animation: eaCj9NfLV8U34_ts__ts 9000ms linear infinite normal forwards}@keyframes eaCj9NfLV8U34_ts__ts { 0% {transform: scale(0,0)} 85.111111% {transform: scale(0,0)} 87.333333% {transform: scale(1.2,1.2)} 88.444444% {transform: scale(1,1)} 94% {transform: scale(1,1)} 97.333333% {transform: scale(0,0)} 100% {transform: scale(0,0)}} #eaCj9NfLV8U36_ts {animation: eaCj9NfLV8U36_ts__ts 9000ms linear infinite normal forwards}@keyframes eaCj9NfLV8U36_ts__ts { 0% {transform: translate(276.18px,157.216084px) scale(1,1)} 89.555556% {transform: translate(276.18px,157.216084px) scale(1,1)} 91.111111% {transform: translate(276.18px,157.216084px) scale(1.341587,1.341587)} 92.666667% {transform: translate(276.18px,157.216084px) scale(1,1)} 100% {transform: translate(276.18px,157.216084px) scale(1,1)}} #eaCj9NfLV8U49_ts {animation: eaCj9NfLV8U49_ts__ts 9000ms linear infinite normal forwards}@keyframes eaCj9NfLV8U49_ts__ts { 0% {transform: translate(493.537292px,497.461151px) scale(1,1)} 7.777778% {transform: translate(493.537292px,497.461151px) scale(1.076367,1)} 10% {transform: translate(493.537292px,497.461151px) scale(1.0249,1)} 12.222222% {transform: translate(493.537292px,497.461151px) scale(1.061351,1)} 15.555556% {transform: translate(493.537292px,497.461151px) scale(1.024899,1)} 17.777778% {transform: translate(493.537292px,497.461151px) scale(1.024899,1)} 20% {transform: translate(493.537292px,497.461151px) scale(0.981623,1)} 22.222222% {transform: translate(493.537292px,497.461151px) scale(0.981623,1)} 24.444444% {transform: translate(493.537292px,497.461151px) scale(1.029465,1)} 28.888889% {transform: translate(493.537292px,497.461151px) scale(1.056794,1)} 35.555556% {transform: translate(493.537292px,497.461151px) scale(1,1)} 100% {transform: translate(493.537292px,497.461151px) scale(1,1)}} #eaCj9NfLV8U59_to {animation: eaCj9NfLV8U59_to__to 9000ms linear infinite normal forwards}@keyframes eaCj9NfLV8U59_to__to { 0% {transform: translate(294.539666px,510.094503px)} 50% {transform: translate(294.539666px,253.474949px)} 100% {transform: translate(294.539666px,510.094503px)}} #eaCj9NfLV8U59_tr {animation: eaCj9NfLV8U59_tr__tr 9000ms linear infinite normal forwards}@keyframes eaCj9NfLV8U59_tr__tr { 0% {transform: rotate(-32.966905deg)} 50% {transform: rotate(15.049333deg)} 100% {transform: rotate(-32.966905deg)}} #eaCj9NfLV8U61_tr {animation: eaCj9NfLV8U61_tr__tr 9000ms linear infinite normal forwards}@keyframes eaCj9NfLV8U61_tr__tr { 0% {transform: translate(122.360636px,619.200173px) rotate(0deg)} 100% {transform: translate(122.360636px,619.200173px) rotate(2160deg)}} #eaCj9NfLV8U62_tr {animation: eaCj9NfLV8U62_tr__tr 9000ms linear infinite normal forwards}@keyframes eaCj9NfLV8U62_tr__tr { 0% {transform: translate(122.239012px,619.200173px) rotate(0deg)} 100% {transform: translate(122.239012px,619.200173px) rotate(360deg)}} #eaCj9NfLV8U66 {animation: eaCj9NfLV8U66_f_p 9000ms linear infinite normal forwards}@keyframes eaCj9NfLV8U66_f_p { 0% {fill: #d2dbed} 13.333333% {fill: #d2dbed} 15.555556% {fill: #3b74ed} 96.666667% {fill: #3b74ed} 97.777778% {fill: #d2dbed} 100% {fill: #d2dbed}} #eaCj9NfLV8U67 {animation: eaCj9NfLV8U67_f_p 9000ms linear infinite normal forwards}@keyframes eaCj9NfLV8U67_f_p { 0% {fill: #d2dbed} 29.555556% {fill: #d2dbed} 31.111111% {fill: #3b74ed} 96.666667% {fill: #3b74ed} 97.777778% {fill: #d2dbed} 100% {fill: #d2dbed}} #eaCj9NfLV8U68_to {animation: eaCj9NfLV8U68_to__to 9000ms linear infinite normal forwards}@keyframes eaCj9NfLV8U68_to__to { 0% {transform: translate(1035.8677px,595.584254px)} 11.111111% {transform: translate(1035.8677px,595.584254px)} 15.555556% {transform: translate(1108.730656px,595.584254px)} 96.666667% {transform: translate(1108.730656px,595.584254px)} 97.777778% {transform: translate(1035.8677px,595.584254px)} 100% {transform: translate(1035.8677px,595.584254px)}} #eaCj9NfLV8U69_to {animation: eaCj9NfLV8U69_to__to 9000ms linear infinite normal forwards}@keyframes eaCj9NfLV8U69_to__to { 0% {transform: translate(1035.8677px,691.757603px)} 26.666667% {transform: translate(1035.8677px,691.757603px)} 31.111111% {transform: translate(1108.730656px,691.757603px)} 96.666667% {transform: translate(1108.730656px,691.757603px)} 97.777778% {transform: translate(1035.8677px,691.757603px)} 100% {transform: translate(1035.8677px,691.757603px)}}]]></style><rect width="1302.781438" height="799.9992" rx="46" ry="46" transform="matrix(.997865 0 0 1.000001 0 2.338849)" fill="#edf2fd" stroke-width="0"/><rect width="483.99" height="28.14" rx="14.07" ry="14.07" transform="translate(352.25 585.46)" fill="#afafaf"/><g id="eaCj9NfLV8U4_tr" transform="translate(539.700012,400.800018) rotate(0)"><circle r="374.2" transform="translate(-0.000012,-0.000018)" fill="none" stroke="#5c46cc" stroke-width="3.36091" stroke-miterlimit="10" stroke-dasharray="33.6091,16.8045"/></g><g transform="matrix(.796449 0 0 0.796449 13.488153 18.118315)"><rect width="659.99" height="460.64" rx="39.02" ry="39.02" transform="translate(506.15 65.15)" fill="#fff" stroke-width="4"/><circle r="10.36" transform="translate(556.5 115.51)" fill="#ff5252"/><circle r="10.36" transform="translate(586.55 115.51)" fill="#ffd255"/><circle r="10.36" transform="translate(616.6 115.51)" fill="#70c451"/><path d="M1106.16,191.61v-1h-.38v-19.5h-.78v19.5h-49.22v-19.5h-.78v19.5h-49.22v-19.5h-.78v19.5h-49.22v-19.5h-.78v19.5h-49.22v-19.5h-.78v19.5h-49.32v-19.5h-.78v19.5h-49.22v-19.5h-.78v19.5h-49.22v-19.5h-.78v19.5h-49.22v-19.5h-.78v19.5h-49.22v-19.5h-.78v19.5h-49.22v-19.5h-.78v19.5h-49.22v-19.5h-.78v19.5h-16.68v1h16.68v49h-16.68v1h16.68v49h-16.68v1h16.68v49h-16.68v1h16.68v49h-16.68v1h16.68v49h-16.68v1h16.68v49h-16.68v1h16.68v19.49h.78v-19.49h49.22v19.49h.78v-19.49h49.22v19.49h.78v-19.49h49.22v19.49h.78v-19.49h49.22v19.49h.78v-19.49h49.22v19.49h.78v-19.49h49.22v19.49h.78v-19.49h49.32v19.49h.78v-19.49h49.22v19.49h.78v-19.49h49.22v19.49h.78v-19.49h49.22v19.49h.78v-19.49h49.22v19.49h.78v-19.49h.38v-1h-.38v-49h.38v-1h-.38v-49h.38v-1h-.38v-49h.38v-1h-.38v-49h.38v-1h-.38v-49h.38v-1h-.38v-49Zm-51.16,0v49h-49.22v-49Zm-150,149h-49.32v-49h49.32Zm.78-49h49.22v49h-49.22Zm-50.88,49h-49.22v-49h49.22Zm-50,0h-49.22v-49h49.22Zm-50,0h-49.22v-49h49.22Zm-50,0h-49.22v-49h49.22Zm0,1v49h-49.22v-49Zm.78,0h49.22v49h-49.22Zm50,0h49.22v49h-49.22Zm50,0h49.22v49h-49.22Zm50,0h49.32v49h-49.32Zm50.1,0h49.22v49h-49.22Zm50,0h49.22v49h-49.22Zm0-1v-49h49.22v49Zm0-50v-49h49.22v49Zm-.78,0h-49.22v-49h49.22Zm-50,0h-49.32v-49h49.32Zm-50.1,0h-49.22v-49h49.22Zm-50,0h-49.22v-49h49.22Zm-50,0h-49.22v-49h49.22Zm-50,0h-49.22v-49h49.22Zm-50,0h-49.22v-49h49.22Zm0,1v49h-49.22v-49Zm0,50v49h-49.22v-49Zm0,50v49h-49.22v-49Zm.78,0h49.22v49h-49.22Zm50,0h49.22v49h-49.22Zm50,0h49.22v49h-49.22Zm50,0h49.22v49h-49.22Zm50,0h49.32v49h-49.32Zm50.1,0h49.22v49h-49.22Zm50,0h49.22v49h-49.22Zm50,0h49.22v49h-49.22Zm0-1v-49h49.22v49Zm0-50v-49h49.22v49Zm0-50v-49h49.22v49Zm-.78-99v49h-49.22v-49Zm-50,0v49h-49.22v-49Zm-50,0v49h-49.32v-49Zm-50.1,0v49h-49.22v-49Zm-50,0v49h-49.22v-49Zm-50,0v49h-49.22v-49Zm-50,0v49h-49.22v-49Zm-50,0v49h-49.22v-49Zm-99.22,0h49.22v49h-49.22Zm0,50h49.22v49h-49.22Zm0,50h49.22v49h-49.22Zm0,50h49.22v49h-49.22Zm0,50h49.22v49h-49.22Zm0,99v-49h49.22v49Zm50,0v-49h49.22v49Zm50,0v-49h49.22v49Zm50,0v-49h49.22v49Zm50,0v-49h49.22v49Zm50,0v-49h49.22v49Zm50,0v-49h49.32v49Zm50.1,0v-49h49.22v49Zm50,0v-49h49.22v49Zm50,0v-49h49.22v49Zm99.22,0h-49.22v-49h49.22Zm0-50h-49.22v-49h49.22Zm0-50h-49.22v-49h49.22Zm0-50h-49.22v-49h49.22Zm0-50h-49.22v-49h49.22Zm0-50h-49.22v-49h49.22Z" opacity="0.1"/><rect width="147.11" height="152.86" rx="24" ry="24" transform="translate(995.73 346.14)" fill="#e8eff3"/><path id="eaCj9NfLV8U12" d="M1014.37,471.1c0,0,1.85-40.15,12.91-40.15s14.66,46.75,21.85,28.17s10.31-69.53,27-63.52c35.65,12.86,47.8-2.05,49.76-36.21" fill="none" stroke="#c61973" stroke-width="9" stroke-miterlimit="50" stroke-dashoffset="240.585786" stroke-dasharray="240.585786"/><g id="eaCj9NfLV8U13_to" transform="translate(1189.039978,196.170006)"><g transform="translate(-1189.039978,-196.170006)"><path d="M1277.08,283.67c0,7.813278-3.103813,15.306544-8.628634,20.831366s-13.018088,8.628634-20.831366,8.628634h-117.19c-16.258592-.016557-29.430008-13.2014-29.43-29.46v-175c0-7.813278,3.103813-15.306544,8.628634-20.831366s13.018088-8.628634,20.831366-8.628634h67.54c10.044127-.00099,19.677235,3.988224,26.78,11.09L1265,130.51c7.029016,7.037065,11.011799,16.554085,11.09,26.5Z" fill="#63eaad"/><g opacity="0.6"><path d="M1138.45,270.29c-2.623411-.616732-5.118021-1.689719-7.37-3.17l3.69-8.27c1.911151,1.232805,3.988875,2.185796,6.17,2.83c2.239804.703493,4.572348,1.067531,6.92,1.08c4.3,0,6.46-1.08,6.46-3.23-.009493-1.149939-.748929-2.166663-1.84-2.53-1.921321-.749315-3.905924-1.32495-5.93-1.72-2.5358-.526172-5.034467-1.217648-7.48-2.07-1.988971-.729324-3.760755-1.95065-5.15-3.55-1.517279-1.842269-2.288081-4.18679-2.16-6.57-.019762-2.336619.67836-4.622969,2-6.55c1.493506-2.073708,3.552028-3.674009,5.93-4.61c3.070279-1.219839,6.357736-1.798377,9.66-1.7c2.59459-.001773,5.181048.290084,7.71.87c2.347007.518838,4.602361,1.388616,6.69,2.58l-3.46,8.33c-3.352852-1.924372-7.135048-2.97651-11-3.06-1.684685-.125163-3.370955.221094-4.87,1-.931127.523231-1.513851,1.502055-1.53,2.57.023002,1.102031.754161,2.063445,1.81,2.38c1.891855.728206,3.846786,1.280541,5.84,1.65c2.550016.507823,5.059913,1.199632,7.51,2.07c1.980973.730783,3.752653,1.935937,5.16,3.51c1.529314,1.82882,2.30834,4.169472,2.18,6.55.016183,2.308163-.682453,4.564757-2,6.46-1.525037,2.074284-3.604846,3.675738-6,4.62-3.058426,1.226461-6.336106,1.811883-9.63,1.72-3.141705.007106-6.27109-.39289-9.31-1.19Z"/><path d="M1210.76,231l-17,39.67h-11L1165.77,231h12.12l10.77,25.84l11-25.84Z"/><path d="M1239.16,250h9.92v16.44c-2.377766,1.677613-5.021537,2.942026-7.82,3.74-2.872066.856977-5.85281,1.294827-8.85,1.3-3.899734.062723-7.754359-.840812-11.22-2.63-3.235634-1.675932-5.942735-4.216868-7.82-7.34-3.773967-6.602061-3.773967-14.707939,0-21.31c1.889399-3.134761,4.619219-5.677512,7.88-7.34c3.524426-1.795024,7.435376-2.698079,11.39-2.63c3.425402-.058247,6.827117.577874,10,1.87c2.850271,1.175386,5.374995,3.020905,7.36,5.38l-7.14,6.46c-2.401012-2.821509-5.925218-4.439058-9.63-4.42-3.061588-.19566-6.059472.934697-8.229715,3.103026s-3.303243,5.165215-3.110285,8.226974c-.03483,2.045727.453984,4.066386,1.42,5.87.925102,1.687126,2.312874,3.074898,4,4c1.781236.989568,3.792733,1.489855,5.83,1.45c2.094015.015382,4.165957-.428361,6.07-1.3Z"/></g></g></g><circle r="157.1" transform="translate(822.19 291.61)" fill="#252549"/><path d="M749.7,376.82c-39.415954-33.533504-50.687079-89.724756-27.252516-135.865135s75.457209-70.184908,125.785838-58.1374s85.824921,57.042044,85.826678,108.792535" fill="none" stroke="#ffc969" stroke-width="38.1385" stroke-miterlimit="10"/><path d="M895.26,206.89c23.980922,20.689678,38.068857,50.574225,38.768452,82.239s-12.054711,62.142369-35.098452,83.871" fill="none" stroke="#63eaad" stroke-width="38.1385" stroke-miterlimit="10"/><path d="M749.7,376.82c-25.01352-21.2341-39.41645-52.398998-39.38-85.21" fill="none" stroke="#ffc969" stroke-width="38.1385" stroke-miterlimit="10"/><path d="M749.7,376.82c-27.973097-23.80834-42.481134-59.828595-38.818926-96.378827s25.028304-68.976021,57.168926-86.761173" fill="none" stroke="#f7931e" stroke-width="38.1385" stroke-miterlimit="10"/><path d="M749.7,376.82c-25.01352-21.2341-39.41645-52.398998-39.38-85.21" fill="none" stroke="#ff3951" stroke-width="38.1385" stroke-miterlimit="10"/><g id="eaCj9NfLV8U25_tr" transform="translate(822.393967,300.672171) rotate(-136.482358)"><path d="M820.5,194.21L805,299.76c-.743302,5.079318.757744,10.230917,4.113047,14.116005s8.233538,6.120024,13.366953,6.123995v0c5.141531.011028,10.032881-2.217945,13.397894-6.10538s4.869926-9.047751,4.122106-14.13462L824.5,194.21c0-1.104569-.895431-2-2-2s-2,.895431-2,2Z" transform="translate(-822.393967,-300.672171)" fill="#e9ecf2"/></g><g id="eaCj9NfLV8U26_ts" transform="translate(1138.886414,441.184906) scale(0,0)"><g transform="translate(-1138.886413,-441.184906)"><ellipse rx="33.028632" ry="33.028632" transform="translate(1138.886431 441.184902)" fill="#2cb647" stroke-width="0"/><path d="M1126.371188,442.675635q0,0,10.272701,9.57315l19.302751-21.632394" transform="translate(.000001-1.050418)" fill="none" stroke="#fff" stroke-width="6"/></g></g><g id="eaCj9NfLV8U29_tr" transform="translate(1072.433785,425.21143) rotate(0)"><g id="eaCj9NfLV8U29_ts" transform="scale(0,0)"><g transform="translate(-1069.758367,-415.499651)"><ellipse rx="12.665977" ry="12.665977" transform="translate(1050.083974 427.887368)" fill="#4668ac" stroke-width="0"/><ellipse rx="12.665977" ry="12.665977" transform="translate(1088.208679 427.887368)" fill="#4668ac" stroke-width="0"/><ellipse rx="12.665977" ry="12.665977" transform="translate(1068.811899 394.779072)" fill="#4668ac" stroke-width="0"/></g></g></g></g><g transform="matrix(.67915 0 0 0.67915 200.247009 15.329818)"><g id="eaCj9NfLV8U34_to" style="offset-path:path('M330.868629,219.756263C292.934656,221.313282,269.176555,191.654048,270.341455,167.376978');offset-rotate:0deg"><g id="eaCj9NfLV8U34_tr" transform="rotate(-4.510824)"><g id="eaCj9NfLV8U34_ts" transform="scale(0,0)"><g transform="translate(-330.868628,-219.756262)"><path d="M345.76,152.52c.024597,18.431156-7.290875,36.113513-20.33,49.14l4.26,20.13-20.59-8c-27.564917,14.80024-61.618818,9.379217-83.225576-13.248637s-25.450669-56.895623-9.394274-83.748257s48.062893-39.683835,78.221854-31.358642s51.050663,35.75861,51.057996,67.045536Z" transform="translate(0-1.31625)" fill="#ff488a"/><g id="eaCj9NfLV8U36_ts" transform="translate(276.18,157.216084) scale(1,1)"><path d="M307.83,129.33c-4.037739-4.038264-9.514403-6.306982-15.225-6.306982s-11.187261,2.268718-15.225,6.306982l-1.18,1.18-1.2-1.18c-8.411646-8.410453-22.048354-8.410453-30.46,0v0c-4.038264,4.037739-6.306982,9.514403-6.306982,15.225s2.268718,11.187261,6.306982,15.225l31.64,31.63l31.63-31.63c4.040918-4.035086,6.313233-9.51026,6.316984-15.220857s-2.26137-11.188752-6.296984-15.229143Z" transform="translate(-276.18,-157.216084)" fill="#fff"/></g></g></g></g></g></g><path d="M453,392.43h-81.62c5.15-24.26,2.43-35,1.3-61.34l-1.3-30.15v-29.11h48.26c3.74-28.29,27.12-52.53,57.64-36.47c3,1.58,6.64,13.84,6.53,20.62-.09,6.46-4.08,20.63-2.36,28.38c1.4,6.27,3.4,12.93,2.48,19.49-5.37,38.3-5.7,51.2-31,58.19Z" fill="#ffd97b" fill-rule="evenodd"/><path d="M470.77,352.63c-4.3,4.7-11.7,7.76-17.81,9.41c0-4.36.07-7.94,0-10c4.86.48,13.28,3.56,17.81.59Z" fill="#eabb53" fill-rule="evenodd"/><path d="M435.55,276.4c-5.8,5.08-12,16.59-.12,28.89s16.84,11.19,21.42,9.88s7.75-14.53,2-24.27-17.5-19.58-23.3-14.5Z" fill="#eabb53" fill-rule="evenodd"/><path d="M479,250.31c-5.06,25.45-9.24,20.35-13.55,44.53-11.49-30.77-22-.64-29.52,37.68-6.79,34.43-62.84,20.13-68,8.06q-12.42-28.81-18.68-50.79v0q-23.32-53.81,7.15-67.21c13.37-36.07,111.89-34.21,132.1-.59.68,1.13-2.2,6.1-1.19,6.76c19.35,12.79-7.31,16.53-8.31,21.56Z" fill="#181e28" fill-rule="evenodd"/><path d="M446.55,277.18c-7.16,1.92-10.4,12.51-7.25,23.65s11.51,18.63,18.66,16.71s10.4-12.5,7.25-23.65-11.51-18.63-18.66-16.71Z" fill="#ffd97b" fill-rule="evenodd"/><g transform="translate(0 1.538849)" clip-path="url(#eaCj9NfLV8U56)"><g><path d="M762.34,570.87c-6.58,4.32-14.46,7.15-22.33,3.45-1-.49-12.56,3-19.7,4.75-1.204842-2.800692-1.814401-5.821242-1.79-8.87q2.49,1.81,20.18-2q3.8,8.97,23.64,2.67Z" fill="#eabb53" fill-rule="evenodd"/><path d="M403.8,555.58c-4.788817-8.969273-9.062417-18.204256-12.8-27.66-12.69,7.54-31.24,12.73-50.83,17.37q5.54-12.42,11.19-26.68c10.83-22.68,22.4-43.23,7.61-63.55-8.48-11.66-20.79-19.14-34.44-22.78v0c-.92-.25-1.85-.45-2.79-.67-.33-.07-.67-.17-1-.24-1.38-.29-2.77-.54-4.18-.76-.5-.08-1-.13-1.53-.2-.93-.12-1.86-.25-2.79-.34-.59-.06-1.18-.1-1.77-.14-.87-.07-1.75-.13-2.63-.17q-.9,0-1.8-.06c-.89,0-1.78,0-2.68,0h-1.72c-1,0-1.95.08-2.93.14l-1.46.09c-1.45.12-2.91.27-4.36.46-2,4.17-3.85,8.28-5.71,12.35q-.76,1.65-1.5,3.3-2.34,5.18-4.57,10.23c-.29.65-.59,1.32-.87,2q-2.58,5.88-5,11.59c-.39.93-.77,1.85-1.16,2.77q-1.94,4.65-3.76,9.18c-.34.86-.7,1.73-1,2.59-1.45,3.67-2.86,7.28-4.19,10.83-.25.65-.48,1.29-.72,1.94-1.12,3-2.18,5.92-3.21,8.81-.31.88-.62,1.76-.92,2.63-1.19,3.43-2.34,6.81-3.4,10.1l-.15.5c-1,3.12-1.92,6.17-2.8,9.17-.24.8-.46,1.59-.69,2.38Q252,535,251,539.06c-.07.3-.16.61-.24.91-.74,3-1.41,5.89-2,8.72-.14.66-.27,1.31-.4,2-.48,2.36-.9,4.67-1.28,6.92-.08.5-.18,1-.26,1.53-.41,2.65-.75,5.21-1,7.71-.05.46-.08.91-.12,1.37q-.3,3.12-.42,6.06c0,.53,0,1.07-.06,1.6-.06,2.3-.06,4.53,0,6.66c0,.2,0,.38,0,.57.11,1.92.3,3.77.55,5.55.06.48.13,1,.21,1.42.287398,1.787827.664542,3.560066,1.13,5.31v.16v0c3.4,12.16,11.11,19.94,23.82,22.56c4.294485.912463,8.74048.833803,13-.23c27.63-2.11,68.61-24.88,119.87-62.3Z" fill="#5f94e0" fill-rule="evenodd"/><path d="M331.33,411.83c41.25.59,95.14-3.31,153.86-11.18-18.43-15.65-12.72-25.75-19.52-30.15q-60.37-8.1-106.83,2.34c-11.32,6.05-.46,18.82-27.51,38.99Z" fill="#5f94e0" fill-rule="evenodd"/><path d="M307.78,571.71c-21.47-89.36-31.33-135.4-10.66-150.22c79.32-54.18,160.42-45.31,231-6.19c49,27.15-14.39,124.09,14.63,250.24c17.93,77.93,19.54,118.72-13.77,129.7-109.21,36-173.21,10.18-208.71-12-12.17-7.59-18-23.95-12.47-62.9c8.64-61.34,9-111.08-.02-148.63Z" fill="#78b6f4" fill-rule="evenodd"/><path d="M537.08,544.78c0,0-14.53-18.26-17-13.7s2.49,71.82,17,101.3c0,0-2.49-65.59,0-87.6Z" fill="#5f94e0" fill-rule="evenodd"/><g id="eaCj9NfLV8U49_ts" transform="translate(493.537292,497.461151) scale(1,1)"><g transform="translate(-508.102314,-497.461151)"><path d="M734.6,585.46h76.32c4.31,0,2.11-6.34.52-9.06-31.77-54.81-92.74,9.06-76.84,9.06Z" fill="#4f5884" fill-rule="evenodd"/><path d="M808,571.18c-.85839-1.104686-1.808424-2.135005-2.84-3.08.44,1.52.84,3.09,1.2,4.72.368566,2.404204-1.190061,4.682417-3.564432,5.210055s-4.751194-.87603-5.435568-3.210055c-1.034602-5.147921-2.863095-10.103745-5.42-14.69-.59-.21-1.2-.41-1.81-.58.906584,1.560385,1.580364,3.244836,2,5c.811956,3.490926.869912,7.114895.17,10.63-.228382,1.689704-1.366981,3.117143-2.963632,3.715444s-3.392931.270628-4.675491-.852892-1.843816-2.861042-1.460877-4.522552c.454129-2.219166.433682-4.509297-.06-6.72-.351441-1.570702-1.146229-3.007567-2.29-4.14-1.262237-1.157111-2.838197-1.915519-4.53-2.18-.44-.08-.91-.14-1.39-.18-6.56,6.2-20.78,20.73-34.94,14.06-1.45-.69-23.76,6.51-25.23,5.65-9.26-5.4,0-16-2.54-21.93c19.16-4.14,41.4-14.84,58-22.3c7.27-1.25,19.42,2.84,26.65,7.43c6.2,3.87,7.23,11.23,11.13,27.97Z" fill="#ffd97b" fill-rule="evenodd"/><path d="M723.35,552.53c-32.22,4.22-61.85-18-87.2-23.14-1.193283-.668962-2.421728-1.273171-3.68-1.81-29.67-12.58-60.144443-86.276796-84.645518-104.930746C524.07557,430.829623,490.135436,446.454459,486,471.23c-4.15,24.79,11.7,39.76,31.51,55.21c34.32,33.78,61.79,53,83.17,61.31c23.66,11.44,75,9.19,128.81-7.09c6.51-2.24,5.67-29.66-6.14-28.13Z" transform="translate(0-.055413)" fill="#78b6f4" fill-rule="evenodd"/><path d="M806.89,569.82c-.63-.68-1.1-1.15-1.67-1.7-2.84-10.53-5.51-16.52-12-22.12c8.94,4.71,11.13,13,13.67,23.82Z" fill="#eabb53" fill-rule="evenodd"/><path d="M793.54,563.19c-.5-1.07-1-2.09-1.6-3.06-.59-.21-1.2-.41-1.81-.58q-2.6-6.18-7.34-8.06c4.25.32,8.34,4.48,10.75,11.35.035401.113981.035401.236019,0,.35Z" fill="#eabb53" fill-rule="evenodd"/></g></g><path d="M490.29,627.56c0,0-33.8,93-47.62,104.62s33.51-4.98,47.62-104.62Z" fill="#5f94e0" fill-rule="evenodd"/></g><clipPath id="eaCj9NfLV8U56"><circle r="369.78" transform="translate(539.7 400.8)" fill="none"/></clipPath></g><g transform="matrix(.654657 0 0 0.654657 98.53438 82.413636)"><g id="eaCj9NfLV8U59_to" transform="translate(294.539666,510.094503)"><g id="eaCj9NfLV8U59_tr" transform="rotate(-32.966905)"><g transform="translate(-122.470005,-619.349945)"><circle r="59.58" transform="translate(122.47 619.35)" fill="#5c46cc"/><g id="eaCj9NfLV8U61_tr" transform="translate(122.360636,619.200173) rotate(0)"><path d="M120.47346,605.710627v18.435054" transform="translate(-120.59507,-624.145678)" fill="none" stroke="#fff" stroke-width="6" stroke-linecap="round"/></g><g id="eaCj9NfLV8U62_tr" transform="translate(122.239012,619.200173) rotate(0)"><path d="M132.861816,623.70324h-10.766072" transform="translate(-122.095735,-623.70324)" fill="none" stroke="#fff" stroke-width="6" stroke-linecap="round"/></g><circle r="28.15" transform="translate(119.8 619.75)" fill="none" stroke="#fff" stroke-width="5.63094" stroke-miterlimit="10"/><line x1="133.31" y1="583.23" x2="147.51" y2="592.39" fill="none" stroke="#fff" stroke-width="5.63094" stroke-linecap="round" stroke-linejoin="round"/></g></g></g></g><g transform="matrix(.805585 0 0 0.805585 78.134647 147.918749)"><rect id="eaCj9NfLV8U66" width="151.79" height="76.926638" rx="38.46" ry="38.46" transform="translate(996.451782 557.592993)" fill="#d2dbed" stroke-width="0"/><rect id="eaCj9NfLV8U67" width="151.79" height="76.926638" rx="38.46" ry="38.46" transform="translate(996.451782 653.294284)" fill="#d2dbed" stroke-width="0"/><g id="eaCj9NfLV8U68_to" transform="translate(1035.8677,595.584254)"><ellipse rx="32.983744" ry="32.983744" transform="translate(0,0)" fill="#fff" stroke-width="0"/></g><g id="eaCj9NfLV8U69_to" transform="translate(1035.8677,691.757603)"><ellipse rx="32.983744" ry="32.983744" transform="translate(0,0)" fill="#fff" stroke-width="0"/></g></g></svg>