<?xml version="1.0" encoding="UTF-8"?>
<svg version="1.1" xmlns="http://www.w3.org/2000/svg" width="1393" height="1391">
<path d="M0 0 C1.25200195 0.30099609 2.50400391 0.60199219 3.79394531 0.91210938 C37.64219328 9.18470518 70.9688802 20.30211645 103 34 C104.10021484 34.4655127 105.20042969 34.93102539 106.33398438 35.41064453 C133.50254451 46.9608933 160.05368058 60.07827139 185.31103516 75.37548828 C187.99290555 76.99571396 190.68743935 78.59256908 193.38671875 80.18359375 C203.47823049 86.14795766 213.34878266 92.34760369 223 99 C223.76280273 99.52319824 224.52560547 100.04639648 225.31152344 100.58544922 C236.46405221 108.24977135 247.38232911 116.15813218 258.05224609 124.48144531 C259.92201103 125.93919636 261.79815374 127.38833582 263.67578125 128.8359375 C274.78049004 137.43436459 285.39596135 146.5682032 295.79296875 156.0078125 C297.73626001 157.76193381 299.70359448 159.47972694 301.6875 161.1875 C311.81124549 170.0407356 321.47732894 179.38290675 331 188.875 C332.18299683 190.0511084 332.18299683 190.0511084 333.38989258 191.25097656 C337.55176318 195.42390303 341.54694827 199.67986933 345.39160156 204.14648438 C347.8132182 206.93715127 350.34763038 209.61799993 352.875 212.3125 C357.36189457 217.13582423 361.62289013 222.08155978 365.74609375 227.22265625 C367.7142408 229.64787731 369.73302157 232.01779676 371.77856445 234.37768555 C379.68447208 243.53649676 386.83850084 253.25526585 394 263 C394.87954346 264.19544434 394.87954346 264.19544434 395.77685547 265.41503906 C403.12785931 275.43211274 410.24571115 285.57096396 417 296 C417.44633789 296.68545898 417.89267578 297.37091797 418.35253906 298.07714844 C432.97036418 320.59814794 445.96073777 344.01186561 458 368 C458.54897949 369.08861328 459.09795898 370.17722656 459.66357422 371.29882812 C495.73340685 443.20295277 517.72322526 522.774271 528 626 C528.14356934 627.78893677 528.14356934 627.78893677 528.29003906 629.61401367 C529.33039626 644.40740831 529.24443288 659.23980852 529.25 674.0625 C529.25088371 675.14080141 529.25088371 675.14080141 529.25178528 676.24088669 C529.26524912 699.55884533 528.71761745 722.70014478 526.22460938 745.90429688 C526.00257887 747.97593806 525.78954921 750.04834615 525.578125 752.12109375 C520.84736508 797.83341671 511.1821989 843.29916565 497 887 C496.67352478 888.0106955 496.67352478 888.0106955 496.3404541 889.04180908 C470.73166352 968.18056489 431.41717304 1043.24534262 357.93359375 1132.88671875 C356.13112279 1134.85669206 354.37241601 1136.85622056 352.625 1138.875 C343.31313123 1149.52553742 333.52588168 1159.63361367 323.51049805 1169.61987305 C321.30205337 1171.8229211 319.09905449 1174.03131469 316.89648438 1176.24023438 C315.46907076 1177.66698765 314.04134723 1179.09343095 312.61328125 1180.51953125 C311.644226 1181.49162285 311.644226 1181.49162285 310.65559387 1182.48335266 C306.80710411 1186.31241955 302.84640472 1189.95856562 298.73449707 1193.50361633 C296.51389262 1195.4193741 294.35198899 1197.39625525 292.1875 1199.375 C287.92254692 1203.21928245 283.5513915 1206.89526905 279.0859375 1210.50390625 C276.85060183 1212.31198156 274.62811795 1214.13112763 272.4140625 1215.96484375 C262.22535651 1224.3743434 251.726916 1232.29102818 241 1240 C239.7931958 1240.86842529 239.7931958 1240.86842529 238.56201172 1241.75439453 C168.00144232 1292.32821332 88.45072718 1329.14720127 -86.9375 1367.25 C-88.22430664 1367.40106201 -89.51111328 1367.55212402 -90.83691406 1367.70776367 C-115.42140041 1370.40840148 -139.93695345 1371.38077677 -164.6469841 1371.31805801 C-166.91595277 1371.31239784 -169.1849139 1371.30958972 -171.45388794 1371.30697632 C-194.74564096 1371.2680255 -217.84385326 1370.68234676 -241 1368 C-241.7718866 1367.91278687 -242.54377319 1367.82557373 -243.33905029 1367.73571777 C-317.27831677 1359.36977105 -389.24647596 1340.27922056 -465.45166016 1305.19628906 C-467.78697055 1304.10000424 -470.13062909 1303.02563425 -472.48046875 1301.9609375 C-484.31069463 1296.56804984 -495.65560835 1290.34091786 -507 1284 C-507.88236328 1283.50983398 -508.76472656 1283.01966797 -509.67382812 1282.51464844 C-541.7220889 1264.6769158 -572.44083887 1244.02751288 -601 1221 C-601.94101562 1220.24203125 -602.88203125 1219.4840625 -603.8515625 1218.703125 C-613.97113217 1210.47915196 -623.91873333 1202.08669461 -633.51953125 1193.26171875 C-635.64870089 1191.3203184 -637.80918211 1189.43336071 -640 1187.5625 C-643.83152298 1184.24132332 -647.37756497 1180.65424264 -650.93359375 1177.04492188 C-653.53056504 1174.42277219 -656.17215885 1171.93255539 -659 1169.5625 C-662.95032546 1166.19381756 -666.38679127 1162.40148455 -669.85449219 1158.55200195 C-672.73594525 1155.3581082 -675.68342847 1152.26955425 -678.75 1149.25 C-682.71447039 1145.32740782 -686.37222376 1141.23240561 -690 1137 C-690.97812276 1135.88450045 -691.9573937 1134.77000716 -692.9375 1133.65625 C-699.27103875 1126.4393818 -705.38430447 1119.10808108 -711.26171875 1111.515625 C-713.11146826 1109.12739138 -714.98896732 1106.76581407 -716.89453125 1104.421875 C-771.51561863 1037.23262577 -810.6528118 957.51338272 -860.25 756.0625 C-860.40106201 754.77561279 -860.55212402 753.48872559 -860.70776367 752.1628418 C-863.40855655 727.57846711 -864.38077651 703.06294693 -864.31805801 678.3530159 C-864.31239784 676.08404723 -864.30958972 673.8150861 -864.30697632 671.54611206 C-864.26802129 648.25184143 -863.66450094 625.15977282 -861 602 C-860.82648708 600.44093722 -860.65315135 598.88185471 -860.47998047 597.32275391 C-855.13564344 549.90922543 -844.99964015 503.30240005 -830 458 C-829.62439941 456.84628906 -829.24879883 455.69257813 -828.86181641 454.50390625 C-816.12900234 415.52480525 -799.74441361 377.26880187 -779.46972656 341.59960938 C-777.92355251 338.86478191 -776.40919992 336.1139076 -774.8984375 333.359375 C-767.69870714 320.31220379 -759.87303951 307.78389502 -751.59765625 295.39355469 C-750.26418386 293.39579135 -748.94053662 291.39240002 -747.625 289.3828125 C-735.6021059 271.10607429 -722.36864397 253.6708059 -708.46923828 236.78955078 C-707.13701615 235.16688741 -705.81590327 233.53511902 -704.49609375 231.90234375 C-700.17720544 226.56194446 -695.72286715 221.38991849 -691.09765625 216.3125 C-689.30492554 214.33615628 -687.55204773 212.3354327 -685.8125 210.3125 C-676.32945769 199.48085348 -666.28919076 189.1887488 -656.125 179 C-655.63322266 178.50563446 -655.14144531 178.01126892 -654.63476562 177.50192261 C-649.48564966 172.33143076 -644.29597288 167.25683452 -638.75195312 162.50683594 C-636.16458944 160.28147241 -633.68471046 157.95107296 -631.1875 155.625 C-626.62049789 151.41046774 -621.93720638 147.39703387 -617.09375 143.5 C-614.74368 141.60095353 -612.41356378 139.68541304 -610.09375 137.75 C-574.19648533 107.83769089 -534.79392476 82.1207036 -493.49169922 60.32373047 C-491.36876501 59.19590867 -489.26071538 58.04765121 -487.16015625 56.87890625 C-444.65839165 33.4615537 -397.73492997 16.714804 -351 4 C-350.33716003 3.81908813 -349.67432007 3.63817627 -348.99139404 3.45178223 C-303.83884741 -8.82789166 -257.63355462 -15.71853851 -211 -19 C-209.52394287 -19.10803955 -209.52394287 -19.10803955 -208.01806641 -19.21826172 C-138.40609226 -24.10263065 -67.66762221 -16.34732974 0 0 Z " fill="#F4DF16" transform="translate(864,20)"/>
<path d="M0 0 C1.71243328 0.00023397 1.71243328 0.00023397 3.45946118 0.00047267 C4.77328521 -0.00177462 6.08710924 -0.00402192 7.44074612 -0.00633731 C8.92089685 -0.00377099 10.40104742 -0.00111406 11.88119784 0.00162334 C13.44283018 0.00088461 15.00446237 -0.00029299 16.5660941 -0.00187316 C20.89736991 -0.00496304 25.22862253 -0.00174991 29.55989663 0.00240497 C34.25680345 0.00582153 38.95370778 0.00347176 43.65061506 0.00182748 C51.89573383 -0.00025245 60.14084541 0.00140803 68.38596335 0.00546569 C80.64629347 0.01148266 92.90661902 0.01180318 105.16695034 0.0109237 C125.78738673 0.00960749 146.40781992 0.01295995 167.02825537 0.01894111 C187.45539354 0.02485106 207.88253038 0.02870562 228.3096694 0.02979392 C229.57810797 0.02986266 230.84654653 0.0299314 232.15342263 0.03000222 C238.59475476 0.03034054 245.0360869 0.03064193 251.47741904 0.0309291 C297.14290414 0.03303147 342.80838711 0.03977349 388.47387114 0.04923171 C399.54796781 0.05152333 410.62206449 0.05379867 421.69616118 0.05600661 C422.38295762 0.05614356 423.06975407 0.05628051 423.77736253 0.05642161 C455.69194539 0.06276317 487.6065284 0.06649047 519.52111173 0.06954141 C521.59248208 0.06973947 523.66385243 0.06993867 525.73522277 0.07013809 C539.46205408 0.07145784 553.18888539 0.0727325 566.9157167 0.07397695 C594.88073447 0.07651261 622.84575222 0.07933465 650.81076994 0.08232803 C652.09665502 0.08246532 653.38254009 0.08260261 654.70739138 0.08274406 C740.62768028 0.09195015 826.54796821 0.10779598 912.4682559 0.12467116 C912.87200438 0.93438872 913.27575285 1.74410628 913.69173613 2.57836074 C917.54216708 10.29946103 921.39464281 18.01953709 925.24928274 25.73853702 C927.2297716 29.70468023 929.20953333 33.67118254 931.18749418 37.63858718 C942.6783901 60.7335533 942.6783901 60.7335533 954.59749785 83.60924453 C957.18295653 88.46769765 959.65236271 93.37992331 962.0932559 98.31217116 C963.011141 100.15856692 963.92911048 102.00492073 964.84716215 103.85123366 C965.2868936 104.73714187 965.72662504 105.62305007 966.17968168 106.53580398 C967.4029707 108.99350704 968.63463085 111.44676197 969.87059965 113.89810866 C970.23782133 114.62747634 970.60504301 115.35684402 970.98339262 116.10831374 C971.656747 117.44482016 972.33144125 118.78065282 973.00780668 120.11563796 C974.66843421 123.41936066 976.09016485 126.67944352 977.4682559 130.12467116 C902.2282559 130.12467116 826.9882559 130.12467116 749.4682559 130.12467116 C755.42004867 146.28391902 755.42004867 146.28391902 761.4291934 162.42154616 C761.86406065 163.58309219 762.2989279 164.74463821 762.74697294 165.94138259 C763.6557229 168.36782459 764.56477089 170.794155 765.47411528 173.22037429 C766.83571789 176.85455188 768.19496865 180.48960367 769.5541934 184.12467116 C774.11701599 196.30942984 778.72525916 208.47171818 783.5232791 220.56613845 C785.72934859 226.14557899 787.78428949 231.75780724 789.7182559 237.43717116 C792.85390167 246.55556233 796.26179065 255.56179653 799.7182559 264.56217116 C800.00253447 265.30260665 800.28681303 266.04304214 800.5797061 266.80591506 C801.72976659 269.80032731 802.88054246 272.7944632 804.03228178 275.78823012 C813.12200478 299.41602231 821.98170835 323.13105518 830.85692778 346.8400032 C831.51122267 348.58689941 831.51122267 348.58689941 832.17873564 350.36908645 C833.03935658 352.66696193 833.8994523 354.9650342 834.75899687 357.26331252 C836.77868558 362.65534079 838.81469114 368.03992934 840.89257231 373.40982741 C841.45619223 374.87023452 841.45619223 374.87023452 842.03119841 376.3601448 C842.73264814 378.17330769 843.43827959 379.9848605 844.14884367 381.79447097 C844.45639082 382.58986282 844.76393797 383.38525466 845.08080473 384.20474929 C845.35032454 384.89379348 845.61984434 385.58283767 845.89753142 386.29276199 C846.4682559 388.12467116 846.4682559 388.12467116 846.4682559 391.12467116 C825.0182559 391.12467116 803.5682559 391.12467116 781.4682559 391.12467116 C782.7882559 394.75467116 784.1082559 398.38467116 785.4682559 402.12467116 C786.36030356 405.00434218 787.22361322 407.874406 788.0416049 410.77399367 C788.27017371 411.57177399 788.49874251 412.36955431 788.73423764 413.19150979 C789.48779553 415.82523705 790.23572841 418.46052596 790.98363676 421.09586257 C791.52748824 423.00101018 792.07169251 424.90605711 792.61622038 426.8110115 C794.08673947 431.95909743 795.55239808 437.10855572 797.017203 442.25826997 C798.55739962 447.66968488 800.10224464 453.07977242 801.64661589 458.48999709 C804.5725521 468.74266124 807.49456216 478.99643978 810.41504809 489.25065762 C814.68930427 504.25749372 818.96938641 519.26266825 823.24955263 534.26781959 C823.88443157 536.49357097 824.51930879 538.71932284 825.15418425 540.94507522 C825.46453771 542.0330872 825.77489117 543.12109918 826.09464928 544.24208123 C827.92584821 550.66225116 829.75590523 557.08274517 831.5849035 563.50354237 C832.72869076 567.51859866 833.87301307 571.53350235 835.01741019 575.54838485 C835.54287703 577.39239594 836.06809841 579.236477 836.59303847 581.08063811 C837.31733947 583.62509643 838.04252836 586.16930016 838.76792326 588.7134468 C838.99343457 589.50624581 839.21894588 590.29904482 839.45129087 591.11586804 C840.5829473 595.08104937 841.7370328 599.03781295 842.92922583 602.98524779 C843.16318959 603.76382278 843.39715335 604.54239777 843.63820693 605.34456593 C844.0799634 606.80943397 844.52627366 608.27293976 844.97803768 609.73475248 C845.98093139 613.06380018 846.4682559 615.6046227 846.4682559 619.12467116 C803.2382559 619.12467116 760.0082559 619.12467116 715.4682559 619.12467116 C711.5082559 605.26467116 707.5482559 591.40467116 703.4682559 577.12467116 C700.86737422 568.21594188 700.86737422 568.21594188 698.26122465 559.3087532 C695.94397732 551.35197022 693.69303712 543.37631954 691.4370059 535.40201491 C691.21526701 534.61847263 690.99352812 533.83493034 690.76506987 533.02764434 C688.70241798 525.73828587 686.64156556 518.44841998 684.58397856 511.15763015 C683.22483774 506.34259201 681.86341891 501.52820348 680.4995059 496.71451491 C680.27994734 495.93957057 680.06038878 495.16462623 679.83417692 494.36619872 C676.89206742 483.9948041 673.85292626 473.65974909 670.67626372 463.35732192 C668.61195382 456.65276507 666.7265847 449.91626614 664.9682559 443.12467116 C662.50289445 433.78080337 659.84637022 424.51888094 656.9526309 415.29849929 C654.55452142 407.61180535 652.55073169 399.93395537 650.4682559 392.12467116 C629.0182559 391.79467116 607.5682559 391.46467116 585.4682559 391.12467116 C584.1482559 396.73467116 582.8282559 402.34467116 581.4682559 408.12467116 C580.32093806 412.08476823 579.15465429 416.01146374 577.9057559 419.93717116 C575.7000635 426.9890832 573.62555284 433.98263042 572.07372465 441.21060866 C571.87391997 441.84224929 571.67411528 442.47388991 571.4682559 443.12467116 C570.4782559 443.61967116 570.4782559 443.61967116 569.4682559 444.12467116 C569.32315581 443.55361648 569.17805571 442.98256179 569.02855864 442.39420241 C566.26581746 431.56279327 563.412754 420.77484416 560.2182559 410.06217116 C557.06901168 399.47485649 554.25069464 388.81261822 551.4682559 378.12467116 C548.76695914 367.74951059 546.04380289 357.39674041 542.9682559 347.12467116 C539.38747983 335.15932381 536.24840056 323.08221432 533.10692778 310.99576491 C531.05814101 303.11943479 528.97846337 295.25365674 526.80809965 287.40982741 C526.60784178 286.68345077 526.40758391 285.95707412 526.20125761 285.20868606 C524.95822831 280.74635162 523.59503026 276.34012145 522.1557559 271.93717116 C519.54274852 263.33152289 519.54274852 263.33152289 520.4682559 259.12467116 C522.97493513 255.7773835 526.1788578 253.23228014 529.33615389 250.5201236 C534.16145104 246.35706175 538.73027825 242.0023556 543.22582426 237.48735732 C544.33251117 236.38195205 544.33251117 236.38195205 545.46155539 235.25421536 C547.91278101 232.80462603 550.36043489 230.3514998 552.80809965 227.89835281 C554.57258914 226.13358103 556.33729929 224.36902986 558.10221281 222.60468215 C561.8910195 218.81610258 565.67829668 215.02600418 569.46416655 211.23449058 C574.9377867 205.75271604 580.41419204 200.27373084 585.89126387 194.79540526 C594.77907613 185.90540866 603.6646566 177.01318487 612.54882231 168.11954421 C621.17492375 159.48425266 629.80208312 150.85002029 638.43065825 142.21720046 C638.96322867 141.68436732 639.49579909 141.15153417 640.04450801 140.60255457 C642.71647444 137.92928302 645.38846159 135.25603218 648.06045904 132.58279163 C670.19960358 110.43329371 692.33508383 88.28013723 714.4682559 66.12467116 C702.49823757 65.52482735 690.53194004 65.07456831 678.54980221 64.80022252 C672.98110937 64.66833104 667.42288419 64.49059314 661.86022368 64.19625014 C637.0666966 62.91951235 617.75005512 62.70993518 598.45191279 79.76476866 C587.0856661 90.17625595 577.39506176 102.58427838 568.75841704 115.30876845 C566.25613663 118.38548567 563.50777084 120.74918178 560.49714461 123.31102771 C557.38034619 126.0971643 554.75909831 129.22882219 552.08983793 132.43692702 C546.02908227 139.58955868 539.80157446 146.56750736 533.45905676 153.47134227 C529.65195144 157.62981399 525.92714354 161.82243555 522.34227934 166.17471999 C506.00403086 185.88878711 488.46101086 199.53730404 462.30469837 202.02581263 C442.44780026 203.50647605 424.91029361 200.52847594 409.44794455 187.35874766 C402.54106094 181.19390979 396.1910121 174.52646568 389.9604434 167.68717116 C389.31189721 166.97746712 388.66335101 166.26776308 387.9951519 165.53655285 C375.74387924 152.07259422 364.04642383 138.13549124 352.55072704 124.02434653 C344.31325869 113.92893888 335.84280585 104.09674314 326.9604434 94.56217116 C326.30242452 93.85012778 325.64440563 93.1380844 324.96644678 92.40446395 C305.46151824 71.50381338 288.00187207 62.78955332 259.23532477 61.77751845 C237.90834566 61.36152339 216.58078017 63.23394844 195.4682559 66.12467116 C196.0862814 66.73073547 196.0862814 66.73073547 196.71679225 67.34904349 C221.1432901 91.30544434 245.51459573 115.31651761 269.81587766 139.399921 C272.734762 142.29254098 275.65410226 145.18470043 278.57372465 148.07657546 C279.15495316 148.65229545 279.73618167 149.22801544 280.33502316 149.82118149 C289.74342626 159.13824317 299.18825674 168.41752152 308.64711624 177.68332278 C318.35441119 187.19412686 328.02138421 196.74454355 337.65221658 206.33277345 C343.59512539 212.24688679 349.5671572 218.12804484 355.5804373 223.97060676 C359.70292957 227.98195323 363.78555248 232.03119297 367.83920091 236.11208725 C370.17958775 238.46591487 372.5365787 240.79107939 374.93424788 243.08734817 C388.96062235 256.54905467 388.96062235 256.54905467 389.81021776 262.5333466 C389.51950784 267.87813674 387.6573133 272.29867627 385.4682559 277.12467116 C384.98602911 278.9254716 384.53580356 280.73626248 384.15966215 282.56217116 C382.12428244 290.83803561 379.95389707 299.04220797 377.48412504 307.19888991 C375.46236443 313.96044335 373.71750213 320.78833131 371.9682559 327.62467116 C369.87240218 335.81560968 367.69443198 343.95569422 365.2416934 352.04654616 C363.39447144 358.20800362 361.86902426 364.4375682 360.34276762 370.6849739 C358.84881417 376.74547233 357.14999089 382.71755986 355.3432559 388.69107741 C353.716443 394.13073307 352.31553887 399.60970864 350.9682559 405.12467116 C349.25192774 412.14540199 347.36488638 419.08428765 345.28392973 426.0052864 C343.18389582 433.00344644 341.31040237 440.0545336 339.4682559 447.12467116 C338.8082559 447.12467116 338.1482559 447.12467116 337.4682559 447.12467116 C334.59699946 438.85392805 331.96699646 430.55137106 329.5932559 422.12467116 C325.47172447 407.49871748 321.02644928 392.97521175 316.4057559 378.49967116 C314.37679041 372.13346772 312.4717256 365.7422873 310.6557559 359.31217116 C308.14839944 350.43504793 305.55099809 341.58650773 302.9057559 332.74967116 C302.71129881 332.09910751 302.51684172 331.44854385 302.31649199 330.77826614 C300.1548839 323.55765222 297.93875182 316.37067822 295.4682559 309.24967116 C293.83091832 304.48394975 292.7762136 300.15464684 292.4682559 295.12467116 C291.8082559 295.12467116 291.1482559 295.12467116 290.4682559 295.12467116 C290.30287321 296.56945846 290.30287321 296.56945846 290.13414946 298.04343337 C289.4723766 302.64088361 288.16011446 306.98739317 286.81395903 311.42447585 C286.40506107 312.79393796 286.40506107 312.79393796 285.98790255 314.19106597 C285.07988872 317.22768235 284.16471761 320.26209213 283.2495059 323.29654616 C282.60096265 325.45999267 281.95285538 327.62356991 281.30515471 329.78726882 C279.56074175 335.60997286 277.8100894 341.43078375 276.05820265 347.25124282 C274.23768771 353.30337835 272.42278775 359.35719734 270.60717192 365.41080398 C266.57999617 378.83389206 262.54399426 392.25431722 258.50625792 405.67423171 C256.8755198 411.09499493 255.24588362 416.51608931 253.61620512 421.93717116 C234.38296965 485.91104795 234.38296965 485.91104795 227.62461272 508.03195876 C225.60707944 514.64072109 223.65010853 521.26614837 221.7104434 527.89810866 C219.58946759 535.13538363 217.40637237 542.35424836 215.23436918 549.57633132 C213.97706476 553.75853131 212.72279622 557.94164137 211.4682559 562.12467116 C210.96827084 563.79134231 210.46827083 565.45800898 209.9682559 567.12467116 C209.7207559 567.94967116 209.4732559 568.77467116 209.2182559 569.62467116 C206.9682559 577.12467116 206.9682559 577.12467116 206.21727934 579.62784499 C205.72047474 581.28391429 205.22372934 582.94000135 204.72704497 584.59610671 C203.42865596 588.92506534 202.12904563 593.25365237 200.8276309 597.58170241 C200.55821684 598.47824538 200.28880278 599.37478835 200.01122465 600.29849929 C199.49858745 602.00434379 198.98559132 603.71008049 198.47216215 605.41568679 C198.23884184 606.19234695 198.00552153 606.9690071 197.7651309 607.76920241 C197.56242583 608.4431404 197.35972075 609.11707839 197.15087309 609.81143874 C196.23651877 612.90997493 195.35577823 616.01834303 194.4682559 619.12467116 C151.2382559 619.12467116 108.0082559 619.12467116 63.4682559 619.12467116 C64.24134808 614.48611813 65.1860165 610.01977203 66.3588809 605.48013991 C66.54537199 604.75208648 66.73186308 604.02403304 66.92400542 603.27391738 C67.31948867 601.73303922 67.71626316 600.19249196 68.114252 598.65225906 C68.70635632 596.35827362 69.29268592 594.06287032 69.87841215 591.76724929 C72.0110563 583.45814305 74.26268144 575.19996956 76.75615874 566.99117202 C78.18812247 562.24145038 79.37753025 557.4636344 80.4682559 552.62467116 C81.72544937 547.12006712 83.13201637 541.71285003 84.7807559 536.31217116 C87.11519029 528.64817902 89.05556248 520.90357525 90.9682559 513.12467116 C92.98591198 504.92406686 95.07772806 496.78779194 97.5541934 488.71451491 C99.60387007 481.91331506 101.27140039 475.02086601 102.9682559 468.12467116 C104.98606162 459.92410179 107.07772602 451.78779858 109.5541934 443.71451491 C111.60387007 436.91331506 113.27140039 430.02086601 114.9682559 423.12467116 C116.98606162 414.92410179 119.07772602 406.78779858 121.5541934 398.71451491 C123.94118829 390.79403187 125.85029394 382.74716636 127.79442778 374.70865554 C129.31785961 368.47513093 130.97822359 362.32093375 132.82470122 356.17691726 C135.08645408 348.5630484 137.13287043 340.91089387 139.07618895 333.21037597 C140.03160451 329.42750041 140.99928163 325.64775773 141.96630278 321.86783523 C142.16884547 321.07556974 142.37138815 320.28330424 142.5800685 319.46703071 C146.24080794 305.17541231 150.05207688 290.92273676 153.84472075 276.66568679 C155.00226293 272.313943 156.15639976 267.96130361 157.30972853 263.60844154 C158.22105484 260.17090786 159.13448898 256.73393679 160.04849425 253.29711455 C160.47490811 251.69252592 160.90063639 250.08775488 161.3255786 248.48277587 C163.68303346 239.58280653 166.12623242 230.71848824 168.77098646 221.89907569 C170.72696213 215.35805414 172.3635449 208.75975285 173.9682559 202.12467116 C175.98194982 193.9263709 178.07453707 185.79291972 180.55199614 177.72330398 C182.97592393 169.68497932 184.90737154 161.51507309 186.8823184 153.35709304 C187.15946684 152.22336257 187.43661528 151.0896321 187.72216215 149.92154616 C187.96265288 148.92477859 188.2031436 147.92801101 188.45092192 146.90103835 C189.96921239 141.26510914 191.75171875 135.70341692 193.4682559 130.12467116 C107.3382559 130.12467116 21.2082559 130.12467116 -67.5317441 130.12467116 C-57.18850812 108.28895077 -57.18850812 108.28895077 -52.4770566 98.88590163 C-51.94090227 97.81184066 -51.40474794 96.73777969 -50.85234651 95.63117141 C-49.12245628 92.16707502 -47.38972609 88.70440923 -45.6567441 85.24185866 C-44.43859224 82.80533107 -43.22091961 80.36856406 -42.00317964 77.93183059 C-39.47328033 72.87023085 -36.94172732 67.80946092 -34.4091855 62.74918288 C-31.48175312 56.8998089 -28.55726122 51.04897159 -25.63421068 45.19740683 C-23.10981417 40.14408523 -20.58386943 35.09153983 -18.05661211 30.03964836 C-16.55296724 27.03391617 -15.04986182 24.02791754 -13.54816255 21.02121276 C-11.88446077 17.69128635 -10.21822361 14.36264128 -8.55127535 11.03433913 C-7.80644144 9.54163497 -7.80644144 9.54163497 -7.04656038 8.01877517 C-6.36984033 6.66956481 -6.36984033 6.66956481 -5.67944917 5.29309768 C-5.28647142 4.5075192 -4.89349367 3.72194072 -4.4886075 2.91255683 C-3.00913276 0.14817931 -3.00913276 0.14817931 0 0 Z " fill="#011688" transform="translate(241.53174409642816,491.87532883509994)"/>
<path d="M0 0 C19.03290369 17.62823891 30.59556244 41.16136435 31.82836914 67.11694336 C32.74167305 93.08015764 25.07979867 117.03425025 7.9609375 136.76953125 C7.1978125 137.78015625 6.4346875 138.79078125 5.6484375 139.83203125 C-11.53803871 158.61724943 -36.96051113 169.62130193 -62.203125 171.04296875 C-89.62824708 171.93231573 -114.22988034 162.36958371 -134.25390625 143.8203125 C-150.75447064 128.12040308 -162.86163475 106.59204907 -164.23193359 83.52246094 C-164.90458544 55.71136472 -161.04487911 32.87227363 -143.0390625 10.76953125 C-142.37519531 9.94195312 -141.71132813 9.114375 -141.02734375 8.26171875 C-126.48990576 -8.88224694 -104.02309265 -22.13198945 -81.5390625 -24.91796875 C-51.07124199 -27.18736267 -23.14391531 -20.80959666 0 0 Z " fill="#011688" transform="translate(926.0390625,305.23046875)"/>
<path d="M0 0 C3.49687806 2.84787299 6.7645481 5.86104404 10 9 C10.67289063 9.59941406 11.34578125 10.19882812 12.0390625 10.81640625 C27.80164192 25.3544028 38.10584035 48.67988094 39 70 C40.02016325 100.20733385 31.78666413 124.6360196 11.81640625 147.5 C-1.06032619 161.10917044 -18.92601435 170.51103624 -37 175 C-37.85207031 175.22429687 -38.70414063 175.44859375 -39.58203125 175.6796875 C-52.24764368 178.52020888 -66.41570546 177.84623447 -79 175 C-79.95777344 174.80535156 -80.91554688 174.61070312 -81.90234375 174.41015625 C-105.92042527 169.0763116 -127.5504581 153.54662739 -141 133 C-155.11281955 109.82961906 -161.25072925 83.46911224 -155.04296875 56.65625 C-147.39550455 29.84716201 -131.64855822 6.65686205 -106.93359375 -7.15478516 C-72.39244902 -25.30796964 -31.53899037 -23.40678301 0 0 Z " fill="#011688" transform="translate(592,299)"/>
<path d="M0 0 C15.92301393 13.23437388 26.9898868 32.27645941 29.3828125 52.98046875 C30.88148836 75.92475746 26.94080952 97.61217185 11.59765625 115.546875 C10.86675781 116.34996094 10.13585937 117.15304687 9.3828125 117.98046875 C8.55910156 118.89699219 7.73539063 119.81351563 6.88671875 120.7578125 C-8.28108479 136.80618519 -28.73316365 145.56816468 -50.67333984 146.33178711 C-74.09376294 146.60822676 -94.75808546 136.85771968 -111.6171875 120.98046875 C-128.49665148 103.19256139 -134.18311979 81.87398643 -133.90234375 57.8828125 C-133.55596602 47.04762988 -130.73920462 36.55864076 -125.6171875 26.98046875 C-125.14796875 26.06136719 -124.67875 25.14226563 -124.1953125 24.1953125 C-113.84614892 5.09864161 -96.20893347 -8.92595119 -75.5546875 -15.45703125 C-48.88751523 -23.11054401 -21.68732674 -16.73484765 0 0 Z " fill="#F4DF16" transform="translate(748.6171875,526.01953125)"/>
<path d="M0 0 C2.3583052 3.5374578 3.31829488 7.08215956 4.45346069 11.12507629 C4.81318496 12.38204733 4.81318496 12.38204733 5.18017638 13.66441172 C5.98502512 16.48165 6.78226981 19.30098386 7.57958984 22.12036133 C8.15421323 24.13760116 8.72930285 26.15470824 9.30482483 28.17169189 C10.86958636 33.66060736 12.42779574 39.15136398 13.98487806 44.64246202 C15.61679464 50.39322867 17.25471119 56.14228582 18.89199829 61.89152527 C21.99738373 72.79937112 25.09737739 83.70874166 28.19544375 94.61866826 C31.70569235 106.9791519 35.22178218 119.33797123 38.73844218 131.69663203 C44.75701383 152.84809554 50.77155242 174.00070193 56.78031921 195.154953 C57.03431874 196.04876155 57.28831826 196.9425701 57.55001473 197.86346376 C58.03610156 199.5750381 58.52154489 201.28679535 59.00626922 202.99875605 C60.06976381 206.7509829 61.14278225 210.49949651 62.24946976 214.23923302 C62.6175613 215.49149996 62.98565285 216.7437669 63.36489868 218.03398132 C63.68346643 219.10157527 64.00203419 220.16916922 64.33025551 221.26911449 C65 224 65 224 65 228 C22.1 228 -20.8 228 -65 228 C-63.77416309 221.87081545 -62.57258799 216.12940599 -60.86328125 210.17578125 C-60.6631543 209.4755484 -60.46302734 208.77531555 -60.25683594 208.05386353 C-59.61283283 205.80553833 -58.96285844 203.5589942 -58.3125 201.3125 C-57.86010482 199.73841015 -57.40787664 198.16427229 -56.95581055 196.59008789 C-54.78230432 189.04169557 -52.57667911 181.50515412 -50.25585938 174.00048828 C-49.94455078 172.98970215 -49.63324219 171.97891602 -49.3125 170.9375 C-49.06865067 170.14976196 -48.82480133 169.36202393 -48.57356262 168.55041504 C-46.56786068 162.01231683 -44.75439229 155.4404846 -43.01171875 148.828125 C-38.57683947 132.19541926 -33.79696173 115.66213329 -29.02978516 99.12231445 C-27.75311488 94.6928609 -26.48004532 90.26238194 -25.20798016 85.831604 C-20.63600128 69.91110791 -16.05524707 53.99823504 -11.17964172 38.16746521 C-9.01221887 31.11116998 -7.04347357 24.02027355 -5.1875 16.875 C-4.62135233 14.70498027 -4.0524509 12.53567666 -3.48046875 10.3671875 C-3.24223389 9.45050293 -3.00399902 8.53381836 -2.75854492 7.58935547 C-1.99375639 4.97868692 -1.05125332 2.50750926 0 0 Z " fill="#021788" transform="translate(696,883)"/>
</svg>
